<?xml version="1.0" encoding="UTF-8"?>
<svg id="Capa_1" data-name="Capa 1" xmlns="http://www.w3.org/2000/svg" xmlns:xlink="http://www.w3.org/1999/xlink" viewBox="0 0 263.03 306.17">
  <defs>
    <style>
      .cls-1 {
        clip-path: url(#clippath-73);
      }

      .cls-2 {
        clip-path: url(#clippath-72);
      }

      .cls-3 {
        clip-path: url(#clippath-62);
      }

      .cls-4, .cls-5, .cls-6, .cls-7, .cls-8, .cls-9, .cls-10, .cls-11 {
        fill: none;
      }

      .cls-4, .cls-7, .cls-9 {
        stroke-linejoin: round;
      }

      .cls-4, .cls-10 {
        stroke: #000;
        stroke-width: .8px;
      }

      .cls-12 {
        clip-path: url(#clippath-45);
      }

      .cls-13 {
        clip-path: url(#clippath-63);
      }

      .cls-14 {
        clip-path: url(#clippath-20);
      }

      .cls-15 {
        clip-path: url(#clippath-11);
      }

      .cls-16 {
        clip-path: url(#clippath-16);
      }

      .cls-17 {
        clip-path: url(#clippath-59);
      }

      .cls-18 {
        clip-path: url(#clippath-33);
      }

      .cls-19 {
        clip-path: url(#clippath-64);
      }

      .cls-20 {
        clip-path: url(#clippath-47);
      }

      .cls-21 {
        fill: #2078b5;
      }

      .cls-22 {
        clip-path: url(#clippath-41);
      }

      .cls-23 {
        clip-path: url(#clippath-32);
      }

      .cls-5 {
        stroke: #fff;
      }

      .cls-5, .cls-6, .cls-8, .cls-10 {
        stroke-miterlimit: 10;
      }

      .cls-24 {
        letter-spacing: -.05em;
      }

      .cls-24, .cls-25, .cls-26 {
        font-size: 4.64px;
      }

      .cls-27 {
        font-size: 5.96px;
        letter-spacing: -.03em;
      }

      .cls-27, .cls-28, .cls-25, .cls-29, .cls-30, .cls-31, .cls-32, .cls-33 {
        fill: #1d1d1b;
        font-family: ArialMT, Arial;
      }

      .cls-34 {
        clip-path: url(#clippath-2);
      }

      .cls-35 {
        clip-path: url(#clippath-13);
      }

      .cls-36 {
        clip-path: url(#clippath-37);
      }

      .cls-37 {
        clip-path: url(#clippath-46);
      }

      .cls-38 {
        clip-path: url(#clippath-25);
      }

      .cls-39 {
        clip-path: url(#clippath-15);
      }

      .cls-40 {
        clip-path: url(#clippath-6);
      }

      .cls-6, .cls-8 {
        stroke: #e30613;
      }

      .cls-7, .cls-9 {
        stroke: #2078b5;
        stroke-width: .75px;
      }

      .cls-7, .cls-10 {
        stroke-linecap: square;
      }

      .cls-41 {
        clip-path: url(#clippath-40);
      }

      .cls-42 {
        clip-path: url(#clippath-26);
      }

      .cls-8 {
        stroke-dasharray: 0 0 2 1;
      }

      .cls-43 {
        clip-path: url(#clippath-75);
      }

      .cls-28, .cls-44 {
        letter-spacing: -.05em;
      }

      .cls-28, .cls-29, .cls-30 {
        font-size: 5.3px;
      }

      .cls-45 {
        clip-path: url(#clippath-7);
      }

      .cls-46 {
        clip-path: url(#clippath-21);
      }

      .cls-47 {
        clip-path: url(#clippath-34);
      }

      .cls-48 {
        clip-path: url(#clippath-57);
      }

      .cls-49 {
        clip-path: url(#clippath-1);
      }

      .cls-50 {
        clip-path: url(#clippath-4);
      }

      .cls-51 {
        clip-path: url(#clippath-38);
      }

      .cls-52 {
        clip-path: url(#clippath-36);
      }

      .cls-53 {
        clip-path: url(#clippath-27);
      }

      .cls-54 {
        letter-spacing: -.16em;
      }

      .cls-55 {
        clip-path: url(#clippath-60);
      }

      .cls-26 {
        letter-spacing: -.05em;
      }

      .cls-56 {
        clip-path: url(#clippath-44);
      }

      .cls-29 {
        letter-spacing: -.05em;
      }

      .cls-57 {
        clip-path: url(#clippath-12);
      }

      .cls-58 {
        clip-path: url(#clippath-24);
      }

      .cls-59 {
        clip-path: url(#clippath-30);
      }

      .cls-60 {
        clip-path: url(#clippath-22);
      }

      .cls-61 {
        clip-path: url(#clippath-9);
      }

      .cls-62 {
        clip-path: url(#clippath-52);
      }

      .cls-63 {
        clip-path: url(#clippath);
      }

      .cls-64 {
        clip-path: url(#clippath-50);
      }

      .cls-65 {
        clip-path: url(#clippath-48);
      }

      .cls-66 {
        clip-path: url(#clippath-61);
      }

      .cls-67 {
        clip-path: url(#clippath-39);
      }

      .cls-68 {
        clip-path: url(#clippath-19);
      }

      .cls-69 {
        clip-path: url(#clippath-31);
      }

      .cls-70 {
        clip-path: url(#clippath-54);
      }

      .cls-71 {
        letter-spacing: -.02em;
      }

      .cls-72 {
        clip-path: url(#clippath-3);
      }

      .cls-73 {
        clip-path: url(#clippath-43);
      }

      .cls-74 {
        clip-path: url(#clippath-70);
      }

      .cls-75 {
        clip-path: url(#clippath-8);
      }

      .cls-76 {
        clip-path: url(#clippath-55);
      }

      .cls-77 {
        clip-path: url(#clippath-69);
      }

      .cls-78 {
        clip-path: url(#clippath-29);
      }

      .cls-79 {
        clip-path: url(#clippath-18);
      }

      .cls-80 {
        clip-path: url(#clippath-14);
      }

      .cls-81 {
        clip-path: url(#clippath-17);
      }

      .cls-82 {
        clip-path: url(#clippath-5);
      }

      .cls-83 {
        clip-path: url(#clippath-58);
      }

      .cls-31, .cls-84 {
        font-size: 4.97px;
      }

      .cls-85 {
        clip-path: url(#clippath-42);
      }

      .cls-86 {
        clip-path: url(#clippath-65);
      }

      .cls-87 {
        clip-path: url(#clippath-10);
      }

      .cls-88 {
        clip-path: url(#clippath-23);
      }

      .cls-89 {
        clip-path: url(#clippath-74);
      }

      .cls-90 {
        clip-path: url(#clippath-56);
      }

      .cls-91 {
        clip-path: url(#clippath-53);
      }

      .cls-92 {
        clip-path: url(#clippath-49);
      }

      .cls-93 {
        clip-path: url(#clippath-67);
      }

      .cls-94 {
        clip-path: url(#clippath-51);
      }

      .cls-33 {
        font-size: 6.62px;
      }

      .cls-95 {
        clip-path: url(#clippath-28);
      }

      .cls-96 {
        clip-path: url(#clippath-71);
      }

      .cls-97 {
        clip-path: url(#clippath-68);
      }

      .cls-98 {
        clip-path: url(#clippath-35);
      }

      .cls-99 {
        clip-path: url(#clippath-66);
      }
    </style>
    <clipPath id="clippath">
      <rect class="cls-11" x="96.21" y="227.7" width="4.44" height="3.85"/>
    </clipPath>
    <clipPath id="clippath-1">
      <rect class="cls-11" x="102.07" y="227.67" width="4.44" height="3.85"/>
    </clipPath>
    <clipPath id="clippath-2">
      <rect class="cls-11" x="107.93" y="227.76" width="4.44" height="3.85"/>
    </clipPath>
    <clipPath id="clippath-3">
      <rect class="cls-11" x="113.79" y="227.81" width="4.44" height="3.85"/>
    </clipPath>
    <clipPath id="clippath-4">
      <rect class="cls-11" x="119.64" y="227.97" width="4.44" height="3.85"/>
    </clipPath>
    <clipPath id="clippath-5">
      <rect class="cls-11" x="125.5" y="227.94" width="4.44" height="3.85"/>
    </clipPath>
    <clipPath id="clippath-6">
      <rect class="cls-11" x="131.36" y="227.73" width="4.44" height="3.85"/>
    </clipPath>
    <clipPath id="clippath-7">
      <rect class="cls-11" x="137.22" y="227.78" width="4.44" height="3.85"/>
    </clipPath>
    <clipPath id="clippath-8">
      <rect class="cls-11" x="143.07" y="227.88" width="4.44" height="3.85"/>
    </clipPath>
    <clipPath id="clippath-9">
      <rect class="cls-11" x="148.93" y="227.29" width="4.44" height="3.85"/>
    </clipPath>
    <clipPath id="clippath-10">
      <rect class="cls-11" x="154.79" y="227.49" width="4.44" height="3.85"/>
    </clipPath>
    <clipPath id="clippath-11">
      <rect class="cls-11" x="160.65" y="227.77" width="4.44" height="3.85"/>
    </clipPath>
    <clipPath id="clippath-12">
      <rect class="cls-11" x="166.5" y="227.62" width="4.44" height="3.85"/>
    </clipPath>
    <clipPath id="clippath-13">
      <rect class="cls-11" x="172.36" y="226.99" width="4.44" height="3.85"/>
    </clipPath>
    <clipPath id="clippath-14">
      <rect class="cls-11" x="178.22" y="227.46" width="4.44" height="3.85"/>
    </clipPath>
    <clipPath id="clippath-15">
      <rect class="cls-11" x="28.2" y="113.93" width="90.2" height="27.49"/>
    </clipPath>
    <clipPath id="clippath-16">
      <rect class="cls-11" x="30.08" y="133.71" width="4.44" height="3.85"/>
    </clipPath>
    <clipPath id="clippath-17">
      <rect class="cls-11" x="35.94" y="133.66" width="4.44" height="3.85"/>
    </clipPath>
    <clipPath id="clippath-18">
      <rect class="cls-11" x="41.79" y="133.68" width="4.44" height="3.85"/>
    </clipPath>
    <clipPath id="clippath-19">
      <rect class="cls-11" x="47.65" y="133.52" width="4.44" height="3.85"/>
    </clipPath>
    <clipPath id="clippath-20">
      <rect class="cls-11" x="53.51" y="133.65" width="4.44" height="3.85"/>
    </clipPath>
    <clipPath id="clippath-21">
      <rect class="cls-11" x="59.37" y="134.1" width="4.44" height="3.85"/>
    </clipPath>
    <clipPath id="clippath-22">
      <rect class="cls-11" x="65.22" y="134.08" width="4.44" height="3.85"/>
    </clipPath>
    <clipPath id="clippath-23">
      <rect class="cls-11" x="71.08" y="133.65" width="4.44" height="3.85"/>
    </clipPath>
    <clipPath id="clippath-24">
      <rect class="cls-11" x="76.94" y="133.82" width="4.44" height="3.85"/>
    </clipPath>
    <clipPath id="clippath-25">
      <rect class="cls-11" x="82.8" y="134.1" width="4.44" height="3.85"/>
    </clipPath>
    <clipPath id="clippath-26">
      <rect class="cls-11" x="88.65" y="133.24" width="4.44" height="3.85"/>
    </clipPath>
    <clipPath id="clippath-27">
      <rect class="cls-11" x="94.51" y="132.56" width="4.44" height="3.85"/>
    </clipPath>
    <clipPath id="clippath-28">
      <rect class="cls-11" x="100.37" y="132.92" width="4.44" height="3.85"/>
    </clipPath>
    <clipPath id="clippath-29">
      <rect class="cls-11" x="106.22" y="133.04" width="4.44" height="3.85"/>
    </clipPath>
    <clipPath id="clippath-30">
      <rect class="cls-11" x="112.08" y="133.74" width="4.44" height="3.85"/>
    </clipPath>
    <clipPath id="clippath-31">
      <rect class="cls-11" x="161.72" y="132.31" width="4.44" height="3.85"/>
    </clipPath>
    <clipPath id="clippath-32">
      <rect class="cls-11" x="167.57" y="132.29" width="4.44" height="3.85"/>
    </clipPath>
    <clipPath id="clippath-33">
      <rect class="cls-11" x="173.43" y="132.31" width="4.44" height="3.85"/>
    </clipPath>
    <clipPath id="clippath-34">
      <rect class="cls-11" x="179.29" y="132.15" width="4.44" height="3.85"/>
    </clipPath>
    <clipPath id="clippath-35">
      <rect class="cls-11" x="185.15" y="132.33" width="4.44" height="3.85"/>
    </clipPath>
    <clipPath id="clippath-36">
      <rect class="cls-11" x="191" y="132.53" width="4.44" height="3.85"/>
    </clipPath>
    <clipPath id="clippath-37">
      <rect class="cls-11" x="196.86" y="132.9" width="4.44" height="3.85"/>
    </clipPath>
    <clipPath id="clippath-38">
      <rect class="cls-11" x="202.72" y="132.27" width="4.44" height="3.85"/>
    </clipPath>
    <clipPath id="clippath-39">
      <rect class="cls-11" x="208.58" y="133.26" width="4.44" height="3.85"/>
    </clipPath>
    <clipPath id="clippath-40">
      <rect class="cls-11" x="214.43" y="134.09" width="4.44" height="3.85"/>
    </clipPath>
    <clipPath id="clippath-41">
      <rect class="cls-11" x="220.29" y="132.39" width="4.44" height="3.85"/>
    </clipPath>
    <clipPath id="clippath-42">
      <rect class="cls-11" x="226.15" y="128.99" width="4.44" height="3.85"/>
    </clipPath>
    <clipPath id="clippath-43">
      <rect class="cls-11" x="232.01" y="126.76" width="4.44" height="3.85"/>
    </clipPath>
    <clipPath id="clippath-44">
      <rect class="cls-11" x="237.86" y="116.49" width="4.44" height="3.85"/>
    </clipPath>
    <clipPath id="clippath-45">
      <rect class="cls-11" x="243.72" y="112.03" width="4.44" height="3.85"/>
    </clipPath>
    <clipPath id="clippath-46">
      <rect class="cls-11" x="30.1" y="23.38" width="4.44" height="3.85"/>
    </clipPath>
    <clipPath id="clippath-47">
      <rect class="cls-11" x="35.95" y="23.53" width="4.44" height="3.85"/>
    </clipPath>
    <clipPath id="clippath-48">
      <rect class="cls-11" x="41.81" y="23.13" width="4.44" height="3.85"/>
    </clipPath>
    <clipPath id="clippath-49">
      <rect class="cls-11" x="47.67" y="22.89" width="4.44" height="3.85"/>
    </clipPath>
    <clipPath id="clippath-50">
      <rect class="cls-11" x="53.53" y="22.11" width="4.44" height="3.85"/>
    </clipPath>
    <clipPath id="clippath-51">
      <rect class="cls-11" x="59.38" y="22.26" width="4.44" height="3.85"/>
    </clipPath>
    <clipPath id="clippath-52">
      <rect class="cls-11" x="65.24" y="23.24" width="4.44" height="3.85"/>
    </clipPath>
    <clipPath id="clippath-53">
      <rect class="cls-11" x="71.1" y="22.96" width="4.44" height="3.85"/>
    </clipPath>
    <clipPath id="clippath-54">
      <rect class="cls-11" x="76.96" y="22.51" width="4.44" height="3.85"/>
    </clipPath>
    <clipPath id="clippath-55">
      <rect class="cls-11" x="82.81" y="25.1" width="4.44" height="3.85"/>
    </clipPath>
    <clipPath id="clippath-56">
      <rect class="cls-11" x="88.67" y="24.3" width="4.44" height="3.85"/>
    </clipPath>
    <clipPath id="clippath-57">
      <rect class="cls-11" x="94.53" y="23.04" width="4.44" height="3.85"/>
    </clipPath>
    <clipPath id="clippath-58">
      <rect class="cls-11" x="100.39" y="23.72" width="4.44" height="3.85"/>
    </clipPath>
    <clipPath id="clippath-59">
      <rect class="cls-11" x="106.24" y="26.18" width="4.44" height="3.85"/>
    </clipPath>
    <clipPath id="clippath-60">
      <rect class="cls-11" x="112.1" y="24.35" width="4.44" height="3.85"/>
    </clipPath>
    <clipPath id="clippath-61">
      <rect class="cls-11" x="161.7" y="38.34" width="4.44" height="3.85"/>
    </clipPath>
    <clipPath id="clippath-62">
      <rect class="cls-11" x="167.56" y="38.37" width="4.44" height="3.85"/>
    </clipPath>
    <clipPath id="clippath-63">
      <rect class="cls-11" x="173.41" y="38.32" width="4.44" height="3.85"/>
    </clipPath>
    <clipPath id="clippath-64">
      <rect class="cls-11" x="179.27" y="38.22" width="4.44" height="3.85"/>
    </clipPath>
    <clipPath id="clippath-65">
      <rect class="cls-11" x="185.13" y="38.15" width="4.44" height="3.85"/>
    </clipPath>
    <clipPath id="clippath-66">
      <rect class="cls-11" x="190.99" y="37.66" width="4.44" height="3.85"/>
    </clipPath>
    <clipPath id="clippath-67">
      <rect class="cls-11" x="196.84" y="37.18" width="4.44" height="3.85"/>
    </clipPath>
    <clipPath id="clippath-68">
      <rect class="cls-11" x="202.7" y="37.89" width="4.44" height="3.85"/>
    </clipPath>
    <clipPath id="clippath-69">
      <rect class="cls-11" x="208.56" y="38.5" width="4.44" height="3.85"/>
    </clipPath>
    <clipPath id="clippath-70">
      <rect class="cls-11" x="214.42" y="39.05" width="4.44" height="3.85"/>
    </clipPath>
    <clipPath id="clippath-71">
      <rect class="cls-11" x="220.27" y="39.1" width="4.44" height="3.85"/>
    </clipPath>
    <clipPath id="clippath-72">
      <rect class="cls-11" x="226.13" y="38.7" width="4.44" height="3.85"/>
    </clipPath>
    <clipPath id="clippath-73">
      <rect class="cls-11" x="231.99" y="39.87" width="4.44" height="3.85"/>
    </clipPath>
    <clipPath id="clippath-74">
      <rect class="cls-11" x="237.85" y="41.6" width="4.44" height="3.85"/>
    </clipPath>
    <clipPath id="clippath-75">
      <rect class="cls-11" x="243.7" y="43.18" width="4.44" height="3.85"/>
    </clipPath>
  </defs>
  <text class="cls-33" transform="translate(4.82 8.04)"><tspan x="0" y="0" xml:space="preserve">A.   Cross-sectional</tspan></text>
  <g>
    <g>
      <line class="cls-6" x1="184.54" y1="223.81" x2="183.54" y2="223.81"/>
      <line class="cls-8" x1="182.53" y1="223.81" x2="95.83" y2="223.81"/>
      <line class="cls-6" x1="95.33" y1="223.81" x2="94.33" y2="223.81"/>
    </g>
    <line class="cls-4" x1="98.43" y1="234.81" x2="98.43" y2="235.65"/>
    <line class="cls-4" x1="104.29" y1="234.81" x2="104.29" y2="235.65"/>
    <line class="cls-4" x1="110.15" y1="234.81" x2="110.15" y2="235.65"/>
    <line class="cls-4" x1="116.01" y1="234.81" x2="116.01" y2="235.65"/>
    <line class="cls-4" x1="121.86" y1="234.81" x2="121.86" y2="235.65"/>
    <line class="cls-4" x1="127.72" y1="234.81" x2="127.72" y2="235.65"/>
    <line class="cls-4" x1="133.58" y1="234.81" x2="133.58" y2="235.65"/>
    <line class="cls-4" x1="139.43" y1="234.81" x2="139.43" y2="235.65"/>
    <line class="cls-4" x1="145.29" y1="234.81" x2="145.29" y2="235.65"/>
    <line class="cls-4" x1="151.15" y1="234.81" x2="151.15" y2="235.65"/>
    <line class="cls-4" x1="157.01" y1="234.81" x2="157.01" y2="235.65"/>
    <line class="cls-4" x1="162.86" y1="234.81" x2="162.86" y2="235.65"/>
    <line class="cls-4" x1="168.72" y1="234.81" x2="168.72" y2="235.65"/>
    <line class="cls-4" x1="174.58" y1="234.81" x2="174.58" y2="235.65"/>
    <line class="cls-4" x1="180.44" y1="234.81" x2="180.44" y2="235.65"/>
    <line class="cls-4" x1="94.33" y1="234.81" x2="93.36" y2="234.81"/>
    <line class="cls-4" x1="94.33" y1="229.31" x2="93.36" y2="229.31"/>
    <line class="cls-4" x1="94.33" y1="223.81" x2="93.36" y2="223.81"/>
    <line class="cls-4" x1="94.33" y1="218.31" x2="93.36" y2="218.31"/>
    <line class="cls-4" x1="94.33" y1="212.81" x2="93.36" y2="212.81"/>
    <line class="cls-4" x1="94.33" y1="207.31" x2="93.36" y2="207.31"/>
    <polyline class="cls-7" points="98.43 229.63 104.29 229.59 110.15 229.68 116.01 229.73 121.86 229.89 127.72 229.86 133.58 229.66 139.43 229.71 145.29 229.8 151.15 229.21 157.01 229.41 162.86 229.7 168.72 229.54 174.58 228.91 180.44 229.38"/>
    <g class="cls-63">
      <path class="cls-21" d="m98.43,230.35c.22,0,.43-.08.59-.21.16-.14.24-.32.24-.51s-.09-.38-.24-.51c-.16-.14-.37-.21-.59-.21s-.43.08-.59.21c-.16.14-.24.32-.24.51s.09.38.24.51c.16.14.37.21.59.21Z"/>
      <path class="cls-9" d="m98.43,230.35c.22,0,.43-.08.59-.21.16-.14.24-.32.24-.51s-.09-.38-.24-.51c-.16-.14-.37-.21-.59-.21s-.43.08-.59.21c-.16.14-.24.32-.24.51s.09.38.24.51c.16.14.37.21.59.21Z"/>
    </g>
    <g class="cls-49">
      <path class="cls-21" d="m104.29,230.31c.22,0,.43-.08.59-.21.16-.14.24-.32.24-.51s-.09-.38-.24-.51c-.16-.14-.37-.21-.59-.21s-.43.08-.59.21c-.16.14-.24.32-.24.51s.09.38.24.51c.16.14.37.21.59.21Z"/>
      <path class="cls-9" d="m104.29,230.31c.22,0,.43-.08.59-.21.16-.14.24-.32.24-.51s-.09-.38-.24-.51c-.16-.14-.37-.21-.59-.21s-.43.08-.59.21c-.16.14-.24.32-.24.51s.09.38.24.51c.16.14.37.21.59.21Z"/>
    </g>
    <g class="cls-34">
      <path class="cls-21" d="m110.15,230.4c.22,0,.43-.08.59-.21.16-.14.24-.32.24-.51s-.09-.38-.24-.51c-.16-.14-.37-.21-.59-.21s-.43.08-.59.21c-.16.14-.24.32-.24.51s.09.38.24.51c.16.14.37.21.59.21Z"/>
      <path class="cls-9" d="m110.15,230.4c.22,0,.43-.08.59-.21.16-.14.24-.32.24-.51s-.09-.38-.24-.51c-.16-.14-.37-.21-.59-.21s-.43.08-.59.21c-.16.14-.24.32-.24.51s.09.38.24.51c.16.14.37.21.59.21Z"/>
    </g>
    <g class="cls-72">
      <path class="cls-21" d="m116.01,230.45c.22,0,.43-.08.59-.21.16-.14.24-.32.24-.51s-.09-.38-.24-.51c-.16-.14-.37-.21-.59-.21s-.43.08-.59.21c-.16.14-.24.32-.24.51s.09.38.24.51c.16.14.37.21.59.21Z"/>
      <path class="cls-9" d="m116.01,230.45c.22,0,.43-.08.59-.21.16-.14.24-.32.24-.51s-.09-.38-.24-.51c-.16-.14-.37-.21-.59-.21s-.43.08-.59.21c-.16.14-.24.32-.24.51s.09.38.24.51c.16.14.37.21.59.21Z"/>
    </g>
    <g class="cls-50">
      <path class="cls-21" d="m121.86,230.61c.22,0,.43-.08.59-.21s.24-.32.24-.51-.09-.38-.24-.51-.37-.21-.59-.21-.43.08-.59.21-.24.32-.24.51.09.38.24.51.37.21.59.21Z"/>
      <path class="cls-9" d="m121.86,230.61c.22,0,.43-.08.59-.21s.24-.32.24-.51-.09-.38-.24-.51-.37-.21-.59-.21-.43.08-.59.21-.24.32-.24.51.09.38.24.51.37.21.59.21Z"/>
    </g>
    <g class="cls-82">
      <path class="cls-21" d="m127.72,230.58c.22,0,.43-.08.59-.21s.24-.32.24-.51-.09-.38-.24-.51-.37-.21-.59-.21-.43.08-.59.21-.24.32-.24.51.09.38.24.51.37.21.59.21Z"/>
      <path class="cls-9" d="m127.72,230.58c.22,0,.43-.08.59-.21s.24-.32.24-.51-.09-.38-.24-.51-.37-.21-.59-.21-.43.08-.59.21-.24.32-.24.51.09.38.24.51.37.21.59.21Z"/>
    </g>
    <g class="cls-40">
      <path class="cls-21" d="m133.58,230.38c.22,0,.43-.08.59-.21s.24-.32.24-.51-.09-.38-.24-.51-.37-.21-.59-.21-.43.08-.59.21-.24.32-.24.51.09.38.24.51.37.21.59.21Z"/>
      <path class="cls-9" d="m133.58,230.38c.22,0,.43-.08.59-.21s.24-.32.24-.51-.09-.38-.24-.51-.37-.21-.59-.21-.43.08-.59.21-.24.32-.24.51.09.38.24.51.37.21.59.21Z"/>
    </g>
    <g class="cls-45">
      <path class="cls-21" d="m139.43,230.43c.22,0,.43-.08.59-.21s.24-.32.24-.51-.09-.38-.24-.51-.37-.21-.59-.21-.43.08-.59.21-.24.32-.24.51.09.38.24.51.37.21.59.21Z"/>
      <path class="cls-9" d="m139.43,230.43c.22,0,.43-.08.59-.21s.24-.32.24-.51-.09-.38-.24-.51-.37-.21-.59-.21-.43.08-.59.21-.24.32-.24.51.09.38.24.51.37.21.59.21Z"/>
    </g>
    <g class="cls-75">
      <path class="cls-21" d="m145.29,230.53c.22,0,.43-.08.59-.21s.24-.32.24-.51-.09-.38-.24-.51-.37-.21-.59-.21-.43.08-.59.21-.24.32-.24.51.09.38.24.51.37.21.59.21Z"/>
      <path class="cls-9" d="m145.29,230.53c.22,0,.43-.08.59-.21s.24-.32.24-.51-.09-.38-.24-.51-.37-.21-.59-.21-.43.08-.59.21-.24.32-.24.51.09.38.24.51.37.21.59.21Z"/>
    </g>
    <g class="cls-61">
      <path class="cls-21" d="m151.15,229.93c.22,0,.43-.08.59-.21s.24-.32.24-.51-.09-.38-.24-.51-.37-.21-.59-.21-.43.08-.59.21-.24.32-.24.51.09.38.24.51.37.21.59.21Z"/>
      <path class="cls-9" d="m151.15,229.93c.22,0,.43-.08.59-.21s.24-.32.24-.51-.09-.38-.24-.51-.37-.21-.59-.21-.43.08-.59.21-.24.32-.24.51.09.38.24.51.37.21.59.21Z"/>
    </g>
    <g class="cls-87">
      <path class="cls-21" d="m157.01,230.14c.22,0,.43-.08.59-.21.16-.14.24-.32.24-.51s-.09-.38-.24-.51c-.16-.14-.37-.21-.59-.21s-.43.08-.59.21c-.16.14-.24.32-.24.51s.09.38.24.51c.16.14.37.21.59.21Z"/>
      <path class="cls-9" d="m157.01,230.14c.22,0,.43-.08.59-.21.16-.14.24-.32.24-.51s-.09-.38-.24-.51c-.16-.14-.37-.21-.59-.21s-.43.08-.59.21c-.16.14-.24.32-.24.51s.09.38.24.51c.16.14.37.21.59.21Z"/>
    </g>
    <g class="cls-15">
      <path class="cls-21" d="m162.86,230.42c.22,0,.43-.08.59-.21.16-.14.24-.32.24-.51s-.09-.38-.24-.51c-.16-.14-.37-.21-.59-.21s-.43.08-.59.21c-.16.14-.24.32-.24.51s.09.38.24.51c.16.14.37.21.59.21Z"/>
      <path class="cls-9" d="m162.86,230.42c.22,0,.43-.08.59-.21.16-.14.24-.32.24-.51s-.09-.38-.24-.51c-.16-.14-.37-.21-.59-.21s-.43.08-.59.21c-.16.14-.24.32-.24.51s.09.38.24.51c.16.14.37.21.59.21Z"/>
    </g>
    <g class="cls-57">
      <path class="cls-21" d="m168.72,230.27c.22,0,.43-.08.59-.21.16-.14.24-.32.24-.51s-.09-.38-.24-.51c-.16-.14-.37-.21-.59-.21s-.43.08-.59.21c-.16.14-.24.32-.24.51s.09.38.24.51c.16.14.37.21.59.21Z"/>
      <path class="cls-9" d="m168.72,230.27c.22,0,.43-.08.59-.21.16-.14.24-.32.24-.51s-.09-.38-.24-.51c-.16-.14-.37-.21-.59-.21s-.43.08-.59.21c-.16.14-.24.32-.24.51s.09.38.24.51c.16.14.37.21.59.21Z"/>
    </g>
    <g class="cls-35">
      <path class="cls-21" d="m174.58,229.64c.22,0,.43-.08.59-.21.16-.14.24-.32.24-.51s-.09-.38-.24-.51c-.16-.14-.37-.21-.59-.21s-.43.08-.59.21c-.16.14-.24.32-.24.51s.09.38.24.51c.16.14.37.21.59.21Z"/>
      <path class="cls-9" d="m174.58,229.64c.22,0,.43-.08.59-.21.16-.14.24-.32.24-.51s-.09-.38-.24-.51c-.16-.14-.37-.21-.59-.21s-.43.08-.59.21c-.16.14-.24.32-.24.51s.09.38.24.51c.16.14.37.21.59.21Z"/>
    </g>
    <g class="cls-80">
      <path class="cls-21" d="m180.44,230.11c.22,0,.43-.08.59-.21.16-.14.24-.32.24-.51s-.09-.38-.24-.51c-.16-.14-.37-.21-.59-.21s-.43.08-.59.21c-.16.14-.24.32-.24.51s.09.38.24.51c.16.14.37.21.59.21Z"/>
      <path class="cls-9" d="m180.44,230.11c.22,0,.43-.08.59-.21.16-.14.24-.32.24-.51s-.09-.38-.24-.51c-.16-.14-.37-.21-.59-.21s-.43.08-.59.21c-.16.14-.24.32-.24.51s.09.38.24.51c.16.14.37.21.59.21Z"/>
    </g>
    <rect class="cls-11" x="94.33" y="207.31" width="90.2" height="27.49"/>
    <rect class="cls-11" x="94.33" y="207.31" width="90.2" height="27.49"/>
    <line class="cls-10" x1="94.33" y1="234.81" x2="94.33" y2="207.31"/>
    <line class="cls-10" x1="184.54" y1="234.81" x2="184.54" y2="207.31"/>
    <line class="cls-10" x1="94.33" y1="234.81" x2="184.54" y2="234.81"/>
    <line class="cls-10" x1="94.33" y1="207.31" x2="184.54" y2="207.31"/>
    <text class="cls-31" transform="translate(99.27 256.81) rotate(-90)"><tspan x="0" y="0">Baseline</tspan></text>
    <text class="cls-31" transform="translate(105.14 276.13) rotate(-90)"><tspan x="0" y="0">Local Democracy</tspan></text>
    <text class="cls-32" transform="translate(111.02 280.38) rotate(-90)"><tspan class="cls-84" x="0" y="0"> </tspan><tspan class="cls-24" x="1.38" y="0">Languages </tspan><tspan class="cls-84" x="23.3" y="0">Distance</tspan></text>
    <text class="cls-31" transform="translate(116.9 278.07) rotate(-90)"><tspan x="0" y="0">Structural Equality</tspan></text>
    <text class="cls-31" transform="translate(122.77 287.19) rotate(-90)"><tspan x="0" y="0">Institutional languages</tspan></text>
    <text class="cls-31" transform="translate(128.65 282.21) rotate(-90)"><tspan x="0" y="0">Free political parties</tspan></text>
    <text class="cls-31" transform="translate(140.7 280.84) rotate(-90)"><tspan x="0" y="0">Bachelor Education</tspan></text>
    <text class="cls-31" transform="translate(134.32 273.38) rotate(-90)"><tspan x="0" y="0">Gender Equality</tspan></text>
    <text class="cls-31" transform="translate(146.58 277.79) rotate(-90)"><tspan x="0" y="0">Credible Elections</tspan></text>
    <text class="cls-31" transform="translate(152.46 279.73) rotate(-90)"><tspan x="0" y="0">Doctoral Education</tspan></text>
    <text class="cls-31" transform="translate(158.34 259.56) rotate(-90)"><tspan x="0" y="0">Air quality</tspan></text>
    <text class="cls-31" transform="translate(164.21 271.63) rotate(-90)"><tspan x="0" y="0">GD</tspan><tspan class="cls-71" x="7.45" y="0">P</tspan><tspan x="10.68" y="0" xml:space="preserve"> per capita</tspan></text>
    <text class="cls-31" transform="translate(170.09 276.15) rotate(-90)"><tspan x="0" y="0">Stable languages</tspan></text>
    <text class="cls-31" transform="translate(175.97 258.18) rotate(-90)"><tspan x="0" y="0">Migration</tspan></text>
    <text class="cls-31" transform="translate(181.84 276.32) rotate(-90)"><tspan x="0" y="0">Inclusive su</tspan><tspan class="cls-71" x="25.96" y="0">f</tspan><tspan x="27.25" y="0">frage</tspan></text>
    <g>
      <text class="cls-25" transform="translate(85.56 225.24)"><tspan x="0" y="0">1.0</tspan></text>
      <text class="cls-31" transform="translate(83.55 223.46) rotate(-90)"><tspan x="0" y="0">OR</tspan></text>
      <text class="cls-25" transform="translate(85.56 208.64)"><tspan x="0" y="0">2.5</tspan></text>
      <text class="cls-25" transform="translate(89.43 236.59)"><tspan x="0" y="0">0</tspan></text>
      <text class="cls-25" transform="translate(85.56 219.73)"><tspan x="0" y="0">1.5</tspan></text>
      <text class="cls-25" transform="translate(85.56 214.05)"><tspan x="0" y="0">2.0</tspan></text>
      <text class="cls-25" transform="translate(85.56 231.17)"><tspan x="0" y="0">0.5</tspan></text>
    </g>
    <text class="cls-30" transform="translate(121.93 205.31)"><tspan class="cls-54" x="0" y="0">T</tspan><tspan class="cls-44" x="2.38" y="0">otal (≥1 language)</tspan></text>
  </g>
  <g>
    <g>
      <line class="cls-6" x1="118.4" y1="130.46" x2="117.4" y2="130.46"/>
      <line class="cls-8" x1="116.4" y1="130.46" x2="29.7" y2="130.46"/>
      <line class="cls-6" x1="29.2" y1="130.46" x2="28.2" y2="130.46"/>
    </g>
    <g>
      <line class="cls-6" x1="250.04" y1="130.61" x2="249.04" y2="130.61"/>
      <line class="cls-8" x1="248.04" y1="130.61" x2="161.34" y2="130.61"/>
      <line class="cls-6" x1="160.84" y1="130.61" x2="159.84" y2="130.61"/>
    </g>
    <line class="cls-4" x1="32.3" y1="141.42" x2="32.3" y2="142.26"/>
    <line class="cls-4" x1="38.15" y1="141.42" x2="38.15" y2="142.26"/>
    <line class="cls-4" x1="44.01" y1="141.42" x2="44.01" y2="142.26"/>
    <line class="cls-4" x1="49.87" y1="141.42" x2="49.87" y2="142.26"/>
    <line class="cls-4" x1="55.73" y1="141.42" x2="55.73" y2="142.26"/>
    <line class="cls-4" x1="61.58" y1="141.42" x2="61.58" y2="142.26"/>
    <line class="cls-4" x1="67.44" y1="141.42" x2="67.44" y2="142.26"/>
    <line class="cls-4" x1="73.3" y1="141.42" x2="73.3" y2="142.26"/>
    <line class="cls-4" x1="79.16" y1="141.42" x2="79.16" y2="142.26"/>
    <line class="cls-4" x1="85.01" y1="141.42" x2="85.01" y2="142.26"/>
    <line class="cls-4" x1="90.87" y1="141.42" x2="90.87" y2="142.26"/>
    <line class="cls-4" x1="96.73" y1="141.42" x2="96.73" y2="142.26"/>
    <line class="cls-4" x1="102.59" y1="141.42" x2="102.59" y2="142.26"/>
    <line class="cls-4" x1="108.44" y1="141.42" x2="108.44" y2="142.26"/>
    <line class="cls-4" x1="114.3" y1="141.42" x2="114.3" y2="142.26"/>
    <line class="cls-4" x1="28.2" y1="141.42" x2="27.23" y2="141.42"/>
    <line class="cls-4" x1="28.2" y1="135.92" x2="27.23" y2="135.92"/>
    <line class="cls-4" x1="28.2" y1="130.43" x2="27.23" y2="130.43"/>
    <line class="cls-4" x1="28.2" y1="124.93" x2="27.23" y2="124.93"/>
    <line class="cls-4" x1="28.2" y1="119.43" x2="27.23" y2="119.43"/>
    <line class="cls-4" x1="28.2" y1="113.93" x2="27.23" y2="113.93"/>
    <g class="cls-39">
      <polyline class="cls-7" points="32.3 135.63 38.15 135.59 44.01 135.6 49.87 135.44 55.73 135.58 61.58 136.03 67.44 136.01 73.3 135.58 79.16 135.75 85.01 136.03 90.87 135.16 96.73 134.48 102.59 134.85 108.44 134.97 114.3 135.67"/>
      <g class="cls-16">
        <path class="cls-21" d="m32.3,136.36c.22,0,.43-.08.59-.21.16-.14.24-.32.24-.51s-.09-.38-.24-.51c-.16-.14-.37-.21-.59-.21s-.43.08-.59.21c-.16.14-.24.32-.24.51s.09.38.24.51c.16.14.37.21.59.21Z"/>
        <path class="cls-9" d="m32.3,136.36c.22,0,.43-.08.59-.21.16-.14.24-.32.24-.51s-.09-.38-.24-.51c-.16-.14-.37-.21-.59-.21s-.43.08-.59.21c-.16.14-.24.32-.24.51s.09.38.24.51c.16.14.37.21.59.21Z"/>
      </g>
      <g class="cls-81">
        <path class="cls-21" d="m38.15,136.31c.22,0,.43-.08.59-.21.16-.14.24-.32.24-.51s-.09-.38-.24-.51c-.16-.14-.37-.21-.59-.21s-.43.08-.59.21c-.16.14-.24.32-.24.51s.09.38.24.51c.16.14.37.21.59.21Z"/>
        <path class="cls-9" d="m38.15,136.31c.22,0,.43-.08.59-.21.16-.14.24-.32.24-.51s-.09-.38-.24-.51c-.16-.14-.37-.21-.59-.21s-.43.08-.59.21c-.16.14-.24.32-.24.51s.09.38.24.51c.16.14.37.21.59.21Z"/>
      </g>
      <g class="cls-79">
        <path class="cls-21" d="m44.01,136.33c.22,0,.43-.08.59-.21.16-.14.24-.32.24-.51s-.09-.38-.24-.51c-.16-.14-.37-.21-.59-.21s-.43.08-.59.21c-.16.14-.24.32-.24.51s.09.38.24.51c.16.14.37.21.59.21Z"/>
        <path class="cls-9" d="m44.01,136.33c.22,0,.43-.08.59-.21.16-.14.24-.32.24-.51s-.09-.38-.24-.51c-.16-.14-.37-.21-.59-.21s-.43.08-.59.21c-.16.14-.24.32-.24.51s.09.38.24.51c.16.14.37.21.59.21Z"/>
      </g>
      <g class="cls-68">
        <path class="cls-21" d="m49.87,136.16c.22,0,.43-.08.59-.21.16-.14.24-.32.24-.51s-.09-.38-.24-.51c-.16-.14-.37-.21-.59-.21s-.43.08-.59.21c-.16.14-.24.32-.24.51s.09.38.24.51c.16.14.37.21.59.21Z"/>
        <path class="cls-9" d="m49.87,136.16c.22,0,.43-.08.59-.21.16-.14.24-.32.24-.51s-.09-.38-.24-.51c-.16-.14-.37-.21-.59-.21s-.43.08-.59.21c-.16.14-.24.32-.24.51s.09.38.24.51c.16.14.37.21.59.21Z"/>
      </g>
      <g class="cls-14">
        <path class="cls-21" d="m55.73,136.3c.22,0,.43-.08.59-.21.16-.14.24-.32.24-.51s-.09-.38-.24-.51c-.16-.14-.37-.21-.59-.21s-.43.08-.59.21c-.16.14-.24.32-.24.51s.09.38.24.51c.16.14.37.21.59.21Z"/>
        <path class="cls-9" d="m55.73,136.3c.22,0,.43-.08.59-.21.16-.14.24-.32.24-.51s-.09-.38-.24-.51c-.16-.14-.37-.21-.59-.21s-.43.08-.59.21c-.16.14-.24.32-.24.51s.09.38.24.51c.16.14.37.21.59.21Z"/>
      </g>
      <g class="cls-46">
        <path class="cls-21" d="m61.58,136.75c.22,0,.43-.08.59-.21.16-.14.24-.32.24-.51s-.09-.38-.24-.51c-.16-.14-.37-.21-.59-.21s-.43.08-.59.21c-.16.14-.24.32-.24.51s.09.38.24.51c.16.14.37.21.59.21Z"/>
        <path class="cls-9" d="m61.58,136.75c.22,0,.43-.08.59-.21.16-.14.24-.32.24-.51s-.09-.38-.24-.51c-.16-.14-.37-.21-.59-.21s-.43.08-.59.21c-.16.14-.24.32-.24.51s.09.38.24.51c.16.14.37.21.59.21Z"/>
      </g>
      <g class="cls-60">
        <path class="cls-21" d="m67.44,136.73c.22,0,.43-.08.59-.21.16-.14.24-.32.24-.51s-.09-.38-.24-.51c-.16-.14-.37-.21-.59-.21s-.43.08-.59.21c-.16.14-.24.32-.24.51s.09.38.24.51c.16.14.37.21.59.21Z"/>
        <path class="cls-9" d="m67.44,136.73c.22,0,.43-.08.59-.21.16-.14.24-.32.24-.51s-.09-.38-.24-.51c-.16-.14-.37-.21-.59-.21s-.43.08-.59.21c-.16.14-.24.32-.24.51s.09.38.24.51c.16.14.37.21.59.21Z"/>
      </g>
      <g class="cls-88">
        <path class="cls-21" d="m73.3,136.3c.22,0,.43-.08.59-.21.16-.14.24-.32.24-.51s-.09-.38-.24-.51c-.16-.14-.37-.21-.59-.21s-.43.08-.59.21c-.16.14-.24.32-.24.51s.09.38.24.51c.16.14.37.21.59.21Z"/>
        <path class="cls-9" d="m73.3,136.3c.22,0,.43-.08.59-.21.16-.14.24-.32.24-.51s-.09-.38-.24-.51c-.16-.14-.37-.21-.59-.21s-.43.08-.59.21c-.16.14-.24.32-.24.51s.09.38.24.51c.16.14.37.21.59.21Z"/>
      </g>
      <g class="cls-58">
        <path class="cls-21" d="m79.16,136.47c.22,0,.43-.08.59-.21.16-.14.24-.32.24-.51s-.09-.38-.24-.51c-.16-.14-.37-.21-.59-.21s-.43.08-.59.21c-.16.14-.24.32-.24.51s.09.38.24.51c.16.14.37.21.59.21Z"/>
        <path class="cls-9" d="m79.16,136.47c.22,0,.43-.08.59-.21.16-.14.24-.32.24-.51s-.09-.38-.24-.51c-.16-.14-.37-.21-.59-.21s-.43.08-.59.21c-.16.14-.24.32-.24.51s.09.38.24.51c.16.14.37.21.59.21Z"/>
      </g>
      <g class="cls-38">
        <path class="cls-21" d="m85.01,136.75c.22,0,.43-.08.59-.21.16-.14.24-.32.24-.51s-.09-.38-.24-.51c-.16-.14-.37-.21-.59-.21s-.43.08-.59.21c-.16.14-.24.32-.24.51s.09.38.24.51c.16.14.37.21.59.21Z"/>
        <path class="cls-9" d="m85.01,136.75c.22,0,.43-.08.59-.21.16-.14.24-.32.24-.51s-.09-.38-.24-.51c-.16-.14-.37-.21-.59-.21s-.43.08-.59.21c-.16.14-.24.32-.24.51s.09.38.24.51c.16.14.37.21.59.21Z"/>
      </g>
      <g class="cls-42">
        <path class="cls-21" d="m90.87,135.89c.22,0,.43-.08.59-.21.16-.14.24-.32.24-.51s-.09-.38-.24-.51c-.16-.14-.37-.21-.59-.21s-.43.08-.59.21c-.16.14-.24.32-.24.51s.09.38.24.51c.16.14.37.21.59.21Z"/>
        <path class="cls-9" d="m90.87,135.89c.22,0,.43-.08.59-.21.16-.14.24-.32.24-.51s-.09-.38-.24-.51c-.16-.14-.37-.21-.59-.21s-.43.08-.59.21c-.16.14-.24.32-.24.51s.09.38.24.51c.16.14.37.21.59.21Z"/>
      </g>
      <g class="cls-53">
        <path class="cls-21" d="m96.73,135.2c.22,0,.43-.08.59-.21.16-.14.24-.32.24-.51s-.09-.38-.24-.51c-.16-.14-.37-.21-.59-.21s-.43.08-.59.21c-.16.14-.24.32-.24.51s.09.38.24.51c.16.14.37.21.59.21Z"/>
        <path class="cls-9" d="m96.73,135.2c.22,0,.43-.08.59-.21.16-.14.24-.32.24-.51s-.09-.38-.24-.51c-.16-.14-.37-.21-.59-.21s-.43.08-.59.21c-.16.14-.24.32-.24.51s.09.38.24.51c.16.14.37.21.59.21Z"/>
      </g>
      <g class="cls-95">
        <path class="cls-21" d="m102.59,135.57c.22,0,.43-.08.59-.21.16-.14.24-.32.24-.51s-.09-.38-.24-.51c-.16-.14-.37-.21-.59-.21s-.43.08-.59.21c-.16.14-.24.32-.24.51s.09.38.24.51c.16.14.37.21.59.21Z"/>
        <path class="cls-9" d="m102.59,135.57c.22,0,.43-.08.59-.21.16-.14.24-.32.24-.51s-.09-.38-.24-.51c-.16-.14-.37-.21-.59-.21s-.43.08-.59.21c-.16.14-.24.32-.24.51s.09.38.24.51c.16.14.37.21.59.21Z"/>
      </g>
      <g class="cls-78">
        <path class="cls-21" d="m108.44,135.69c.22,0,.43-.08.59-.21.16-.14.24-.32.24-.51s-.09-.38-.24-.51c-.16-.14-.37-.21-.59-.21s-.43.08-.59.21c-.16.14-.24.32-.24.51s.09.38.24.51c.16.14.37.21.59.21Z"/>
        <path class="cls-9" d="m108.44,135.69c.22,0,.43-.08.59-.21.16-.14.24-.32.24-.51s-.09-.38-.24-.51c-.16-.14-.37-.21-.59-.21s-.43.08-.59.21c-.16.14-.24.32-.24.51s.09.38.24.51c.16.14.37.21.59.21Z"/>
      </g>
      <g class="cls-59">
        <path class="cls-21" d="m114.3,136.39c.22,0,.43-.08.59-.21.16-.14.24-.32.24-.51s-.09-.38-.24-.51c-.16-.14-.37-.21-.59-.21s-.43.08-.59.21c-.16.14-.24.32-.24.51s.09.38.24.51c.16.14.37.21.59.21Z"/>
        <path class="cls-9" d="m114.3,136.39c.22,0,.43-.08.59-.21.16-.14.24-.32.24-.51s-.09-.38-.24-.51c-.16-.14-.37-.21-.59-.21s-.43.08-.59.21c-.16.14-.24.32-.24.51s.09.38.24.51c.16.14.37.21.59.21Z"/>
      </g>
    </g>
    <line class="cls-10" x1="28.2" y1="141.42" x2="28.2" y2="113.93"/>
    <line class="cls-10" x1="118.4" y1="141.42" x2="118.4" y2="113.93"/>
    <line class="cls-10" x1="28.2" y1="141.42" x2="118.4" y2="141.42"/>
    <line class="cls-10" x1="28.2" y1="113.93" x2="118.4" y2="113.93"/>
    <line class="cls-4" x1="163.94" y1="141.61" x2="163.94" y2="142.45"/>
    <line class="cls-4" x1="169.79" y1="141.61" x2="169.79" y2="142.45"/>
    <line class="cls-4" x1="175.65" y1="141.61" x2="175.65" y2="142.45"/>
    <line class="cls-4" x1="181.51" y1="141.61" x2="181.51" y2="142.45"/>
    <line class="cls-4" x1="187.36" y1="141.61" x2="187.36" y2="142.45"/>
    <line class="cls-4" x1="193.22" y1="141.61" x2="193.22" y2="142.45"/>
    <line class="cls-4" x1="199.08" y1="141.61" x2="199.08" y2="142.45"/>
    <line class="cls-4" x1="204.94" y1="141.61" x2="204.94" y2="142.45"/>
    <line class="cls-4" x1="210.79" y1="141.61" x2="210.79" y2="142.45"/>
    <line class="cls-4" x1="216.65" y1="141.61" x2="216.65" y2="142.45"/>
    <line class="cls-4" x1="222.51" y1="141.61" x2="222.51" y2="142.45"/>
    <line class="cls-4" x1="228.37" y1="141.61" x2="228.37" y2="142.45"/>
    <line class="cls-4" x1="234.22" y1="141.61" x2="234.22" y2="142.45"/>
    <line class="cls-4" x1="240.08" y1="141.61" x2="240.08" y2="142.45"/>
    <line class="cls-4" x1="245.94" y1="141.61" x2="245.94" y2="142.45"/>
    <line class="cls-4" x1="159.84" y1="141.61" x2="158.86" y2="141.61"/>
    <line class="cls-4" x1="159.84" y1="136.11" x2="158.86" y2="136.11"/>
    <line class="cls-4" x1="159.84" y1="130.61" x2="158.86" y2="130.61"/>
    <line class="cls-4" x1="159.84" y1="125.12" x2="158.86" y2="125.12"/>
    <line class="cls-4" x1="159.84" y1="119.62" x2="158.86" y2="119.62"/>
    <line class="cls-4" x1="159.84" y1="114.12" x2="158.86" y2="114.12"/>
    <polyline class="cls-7" points="163.94 134.23 169.79 134.22 175.65 134.24 181.51 134.08 187.36 134.26 193.22 134.46 199.08 134.82 204.94 134.2 210.79 135.19 216.65 136.01 222.51 134.32 228.37 130.92 234.22 128.69 240.08 118.42 245.94 113.96"/>
    <g class="cls-69">
      <path class="cls-21" d="m163.94,134.95c.22,0,.43-.08.59-.21.16-.14.24-.32.24-.51s-.09-.38-.24-.51c-.16-.14-.37-.21-.59-.21s-.43.08-.59.21c-.16.14-.24.32-.24.51s.09.38.24.51c.16.14.37.21.59.21Z"/>
      <path class="cls-9" d="m163.94,134.95c.22,0,.43-.08.59-.21.16-.14.24-.32.24-.51s-.09-.38-.24-.51c-.16-.14-.37-.21-.59-.21s-.43.08-.59.21c-.16.14-.24.32-.24.51s.09.38.24.51c.16.14.37.21.59.21Z"/>
    </g>
    <g class="cls-23">
      <path class="cls-21" d="m169.79,134.94c.22,0,.43-.08.59-.21.16-.14.24-.32.24-.51s-.09-.38-.24-.51c-.16-.14-.37-.21-.59-.21s-.43.08-.59.21c-.16.14-.24.32-.24.51s.09.38.24.51c.16.14.37.21.59.21Z"/>
      <path class="cls-9" d="m169.79,134.94c.22,0,.43-.08.59-.21.16-.14.24-.32.24-.51s-.09-.38-.24-.51c-.16-.14-.37-.21-.59-.21s-.43.08-.59.21c-.16.14-.24.32-.24.51s.09.38.24.51c.16.14.37.21.59.21Z"/>
    </g>
    <g class="cls-18">
      <path class="cls-21" d="m175.65,134.96c.22,0,.43-.08.59-.21.16-.14.24-.32.24-.51s-.09-.38-.24-.51c-.16-.14-.37-.21-.59-.21s-.43.08-.59.21c-.16.14-.24.32-.24.51s.09.38.24.51c.16.14.37.21.59.21Z"/>
      <path class="cls-9" d="m175.65,134.96c.22,0,.43-.08.59-.21.16-.14.24-.32.24-.51s-.09-.38-.24-.51c-.16-.14-.37-.21-.59-.21s-.43.08-.59.21c-.16.14-.24.32-.24.51s.09.38.24.51c.16.14.37.21.59.21Z"/>
    </g>
    <g class="cls-47">
      <path class="cls-21" d="m181.51,134.8c.22,0,.43-.08.59-.21.16-.14.24-.32.24-.51s-.09-.38-.24-.51c-.16-.14-.37-.21-.59-.21s-.43.08-.59.21c-.16.14-.24.32-.24.51s.09.38.24.51c.16.14.37.21.59.21Z"/>
      <path class="cls-9" d="m181.51,134.8c.22,0,.43-.08.59-.21.16-.14.24-.32.24-.51s-.09-.38-.24-.51c-.16-.14-.37-.21-.59-.21s-.43.08-.59.21c-.16.14-.24.32-.24.51s.09.38.24.51c.16.14.37.21.59.21Z"/>
    </g>
    <g class="cls-98">
      <path class="cls-21" d="m187.36,134.98c.22,0,.43-.08.59-.21.16-.14.24-.32.24-.51s-.09-.38-.24-.51c-.16-.14-.37-.21-.59-.21s-.43.08-.59.21c-.16.14-.24.32-.24.51s.09.38.24.51c.16.14.37.21.59.21Z"/>
      <path class="cls-9" d="m187.36,134.98c.22,0,.43-.08.59-.21.16-.14.24-.32.24-.51s-.09-.38-.24-.51c-.16-.14-.37-.21-.59-.21s-.43.08-.59.21c-.16.14-.24.32-.24.51s.09.38.24.51c.16.14.37.21.59.21Z"/>
    </g>
    <g class="cls-52">
      <path class="cls-21" d="m193.22,135.18c.22,0,.43-.08.59-.21.16-.14.24-.32.24-.51s-.09-.38-.24-.51c-.16-.14-.37-.21-.59-.21s-.43.08-.59.21c-.16.14-.24.32-.24.51s.09.38.24.51c.16.14.37.21.59.21Z"/>
      <path class="cls-9" d="m193.22,135.18c.22,0,.43-.08.59-.21.16-.14.24-.32.24-.51s-.09-.38-.24-.51c-.16-.14-.37-.21-.59-.21s-.43.08-.59.21c-.16.14-.24.32-.24.51s.09.38.24.51c.16.14.37.21.59.21Z"/>
    </g>
    <g class="cls-36">
      <path class="cls-21" d="m199.08,135.54c.22,0,.43-.08.59-.21.16-.14.24-.32.24-.51s-.09-.38-.24-.51c-.16-.14-.37-.21-.59-.21s-.43.08-.59.21c-.16.14-.24.32-.24.51s.09.38.24.51c.16.14.37.21.59.21Z"/>
      <path class="cls-9" d="m199.08,135.54c.22,0,.43-.08.59-.21.16-.14.24-.32.24-.51s-.09-.38-.24-.51c-.16-.14-.37-.21-.59-.21s-.43.08-.59.21c-.16.14-.24.32-.24.51s.09.38.24.51c.16.14.37.21.59.21Z"/>
    </g>
    <g class="cls-51">
      <path class="cls-21" d="m204.94,134.92c.22,0,.43-.08.59-.21.16-.14.24-.32.24-.51s-.09-.38-.24-.51c-.16-.14-.37-.21-.59-.21s-.43.08-.59.21c-.16.14-.24.32-.24.51s.09.38.24.51c.16.14.37.21.59.21Z"/>
      <path class="cls-9" d="m204.94,134.92c.22,0,.43-.08.59-.21.16-.14.24-.32.24-.51s-.09-.38-.24-.51c-.16-.14-.37-.21-.59-.21s-.43.08-.59.21c-.16.14-.24.32-.24.51s.09.38.24.51c.16.14.37.21.59.21Z"/>
    </g>
    <g class="cls-67">
      <path class="cls-21" d="m210.79,135.91c.22,0,.43-.08.59-.21.16-.14.24-.32.24-.51s-.09-.38-.24-.51c-.16-.14-.37-.21-.59-.21s-.43.08-.59.21c-.16.14-.24.32-.24.51s.09.38.24.51c.16.14.37.21.59.21Z"/>
      <path class="cls-9" d="m210.79,135.91c.22,0,.43-.08.59-.21.16-.14.24-.32.24-.51s-.09-.38-.24-.51c-.16-.14-.37-.21-.59-.21s-.43.08-.59.21c-.16.14-.24.32-.24.51s.09.38.24.51c.16.14.37.21.59.21Z"/>
    </g>
    <g class="cls-41">
      <path class="cls-21" d="m216.65,136.73c.22,0,.43-.08.59-.21.16-.14.24-.32.24-.51s-.09-.38-.24-.51c-.16-.14-.37-.21-.59-.21s-.43.08-.59.21c-.16.14-.24.32-.24.51s.09.38.24.51c.16.14.37.21.59.21Z"/>
      <path class="cls-9" d="m216.65,136.73c.22,0,.43-.08.59-.21.16-.14.24-.32.24-.51s-.09-.38-.24-.51c-.16-.14-.37-.21-.59-.21s-.43.08-.59.21c-.16.14-.24.32-.24.51s.09.38.24.51c.16.14.37.21.59.21Z"/>
    </g>
    <g class="cls-22">
      <path class="cls-21" d="m222.51,135.04c.22,0,.43-.08.59-.21.16-.14.24-.32.24-.51s-.09-.38-.24-.51c-.16-.14-.37-.21-.59-.21s-.43.08-.59.21c-.16.14-.24.32-.24.51s.09.38.24.51c.16.14.37.21.59.21Z"/>
      <path class="cls-9" d="m222.51,135.04c.22,0,.43-.08.59-.21.16-.14.24-.32.24-.51s-.09-.38-.24-.51c-.16-.14-.37-.21-.59-.21s-.43.08-.59.21c-.16.14-.24.32-.24.51s.09.38.24.51c.16.14.37.21.59.21Z"/>
    </g>
    <g class="cls-85">
      <path class="cls-21" d="m228.37,131.64c.22,0,.43-.08.59-.21.16-.14.24-.32.24-.51s-.09-.38-.24-.51c-.16-.14-.37-.21-.59-.21s-.43.08-.59.21c-.16.14-.24.32-.24.51s.09.38.24.51c.16.14.37.21.59.21Z"/>
      <path class="cls-9" d="m228.37,131.64c.22,0,.43-.08.59-.21.16-.14.24-.32.24-.51s-.09-.38-.24-.51c-.16-.14-.37-.21-.59-.21s-.43.08-.59.21c-.16.14-.24.32-.24.51s.09.38.24.51c.16.14.37.21.59.21Z"/>
    </g>
    <g class="cls-73">
      <path class="cls-21" d="m234.22,129.41c.22,0,.43-.08.59-.21.16-.14.24-.32.24-.51s-.09-.38-.24-.51c-.16-.14-.37-.21-.59-.21s-.43.08-.59.21c-.16.14-.24.32-.24.51s.09.38.24.51c.16.14.37.21.59.21Z"/>
      <path class="cls-9" d="m234.22,129.41c.22,0,.43-.08.59-.21.16-.14.24-.32.24-.51s-.09-.38-.24-.51c-.16-.14-.37-.21-.59-.21s-.43.08-.59.21c-.16.14-.24.32-.24.51s.09.38.24.51c.16.14.37.21.59.21Z"/>
    </g>
    <g class="cls-56">
      <path class="cls-21" d="m240.08,119.14c.22,0,.43-.08.59-.21.16-.14.24-.32.24-.51s-.09-.38-.24-.51c-.16-.14-.37-.21-.59-.21s-.43.08-.59.21c-.16.14-.24.32-.24.51s.09.38.24.51c.16.14.37.21.59.21Z"/>
      <path class="cls-9" d="m240.08,119.14c.22,0,.43-.08.59-.21.16-.14.24-.32.24-.51s-.09-.38-.24-.51c-.16-.14-.37-.21-.59-.21s-.43.08-.59.21c-.16.14-.24.32-.24.51s.09.38.24.51c.16.14.37.21.59.21Z"/>
    </g>
    <g class="cls-12">
      <path class="cls-21" d="m245.94,114.68c.22,0,.43-.08.59-.21.16-.14.24-.32.24-.51s-.09-.38-.24-.51c-.16-.14-.37-.21-.59-.21s-.43.08-.59.21c-.16.14-.24.32-.24.51s.09.38.24.51c.16.14.37.21.59.21Z"/>
      <path class="cls-9" d="m245.94,114.68c.22,0,.43-.08.59-.21.16-.14.24-.32.24-.51s-.09-.38-.24-.51c-.16-.14-.37-.21-.59-.21s-.43.08-.59.21c-.16.14-.24.32-.24.51s.09.38.24.51c.16.14.37.21.59.21Z"/>
    </g>
    <rect class="cls-11" x="159.84" y="114.12" width="90.2" height="27.49"/>
    <rect class="cls-11" x="159.84" y="114.12" width="90.2" height="27.49"/>
    <line class="cls-10" x1="159.84" y1="141.61" x2="159.84" y2="114.12"/>
    <line class="cls-10" x1="250.04" y1="141.61" x2="250.04" y2="114.12"/>
    <line class="cls-10" x1="159.84" y1="141.61" x2="250.04" y2="141.61"/>
    <line class="cls-10" x1="159.84" y1="114.12" x2="250.04" y2="114.12"/>
    <text class="cls-31" transform="translate(45.32 193.25) rotate(-90)"><tspan x="0" y="0">Institutional languages</tspan></text>
    <text class="cls-31" transform="translate(33.57 162.86) rotate(-90)"><tspan x="0" y="0">Baseline</tspan></text>
    <text class="cls-31" transform="translate(39.44 182.18) rotate(-90)"><tspan x="0" y="0">Local Democracy</tspan></text>
    <text class="cls-32" transform="translate(57.08 186.43) rotate(-90)"><tspan class="cls-84" x="0" y="0"> </tspan><tspan class="cls-26" x="1.38" y="0">Languages </tspan><tspan class="cls-84" x="23.3" y="0">Distance</tspan></text>
    <text class="cls-31" transform="translate(51.2 184.12) rotate(-90)"><tspan x="0" y="0">Structural Equality</tspan></text>
    <text class="cls-31" transform="translate(62.95 182.2) rotate(-90)"><tspan x="0" y="0">Stable languages</tspan></text>
    <text class="cls-31" transform="translate(92.34 188.26) rotate(-90)"><tspan x="0" y="0">Free political parties</tspan></text>
    <text class="cls-31" transform="translate(115.84 186.89) rotate(-90)"><tspan x="0" y="0">Bachelor Education</tspan></text>
    <text class="cls-31" transform="translate(109.97 179.43) rotate(-90)"><tspan x="0" y="0">Gender Equality</tspan></text>
    <text class="cls-31" transform="translate(86.46 183.85) rotate(-90)"><tspan x="0" y="0">Credible Elections</tspan></text>
    <text class="cls-31" transform="translate(104.09 185.78) rotate(-90)"><tspan x="0" y="0">Doctoral Education</tspan></text>
    <text class="cls-31" transform="translate(68.83 165.62) rotate(-90)"><tspan x="0" y="0">Air quality</tspan></text>
    <text class="cls-31" transform="translate(74.71 177.68) rotate(-90)"><tspan x="0" y="0">GD</tspan><tspan class="cls-71" x="7.45" y="0">P</tspan><tspan x="10.68" y="0" xml:space="preserve"> per capita</tspan></text>
    <text class="cls-31" transform="translate(80.58 164.24) rotate(-90)"><tspan x="0" y="0">Migration</tspan></text>
    <text class="cls-31" transform="translate(98.21 182.38) rotate(-90)"><tspan x="0" y="0">Inclusive su</tspan><tspan class="cls-71" x="25.96" y="0">f</tspan><tspan x="27.25" y="0">frage</tspan></text>
    <text class="cls-31" transform="translate(188.62 193.25) rotate(-90)"><tspan x="0" y="0">Institutional languages</tspan></text>
    <text class="cls-31" transform="translate(165.12 162.86) rotate(-90)"><tspan x="0" y="0">Baseline</tspan></text>
    <text class="cls-31" transform="translate(170.99 182.18) rotate(-90)"><tspan x="0" y="0">Local Democracy</tspan></text>
    <text class="cls-32" transform="translate(194.5 186.43) rotate(-90)"><tspan class="cls-84" x="0" y="0"> </tspan><tspan class="cls-26" x="1.38" y="0">Languages </tspan><tspan class="cls-84" x="23.3" y="0">Distance</tspan></text>
    <text class="cls-31" transform="translate(223.88 184.12) rotate(-90)"><tspan x="0" y="0">Structural Equality</tspan></text>
    <text class="cls-31" transform="translate(212.13 182.2) rotate(-90)"><tspan x="0" y="0">Stable languages</tspan></text>
    <text class="cls-31" transform="translate(218.01 188.26) rotate(-90)"><tspan x="0" y="0">Free political parties</tspan></text>
    <text class="cls-31" transform="translate(235.64 186.89) rotate(-90)"><tspan x="0" y="0">Bachelor Education</tspan></text>
    <text class="cls-31" transform="translate(206.25 179.43) rotate(-90)"><tspan x="0" y="0">Gender Equality</tspan></text>
    <text class="cls-31" transform="translate(200.38 183.85) rotate(-90)"><tspan x="0" y="0">Credible Elections</tspan></text>
    <text class="cls-31" transform="translate(229.76 185.78) rotate(-90)"><tspan x="0" y="0">Doctoral Education</tspan></text>
    <text class="cls-31" transform="translate(182.74 165.62) rotate(-90)"><tspan x="0" y="0">Air quality</tspan></text>
    <text class="cls-31" transform="translate(247.39 177.68) rotate(-90)"><tspan x="0" y="0">GD</tspan><tspan class="cls-71" x="7.45" y="0">P</tspan><tspan x="10.68" y="0" xml:space="preserve"> per capita</tspan></text>
    <text class="cls-31" transform="translate(241.51 164.24) rotate(-90)"><tspan x="0" y="0">Migration</tspan></text>
    <text class="cls-31" transform="translate(176.87 182.38) rotate(-90)"><tspan x="0" y="0">Inclusive su</tspan><tspan class="cls-71" x="25.96" y="0">f</tspan><tspan x="27.25" y="0">frage</tspan></text>
    <g>
      <text class="cls-25" transform="translate(20.06 131.62)"><tspan x="0" y="0">1.0</tspan></text>
      <text class="cls-31" transform="translate(18.05 129.84) rotate(-90)"><tspan x="0" y="0">OR</tspan></text>
      <text class="cls-25" transform="translate(20.06 115.02)"><tspan x="0" y="0">2.5</tspan></text>
      <text class="cls-25" transform="translate(23.93 142.97)"><tspan x="0" y="0">0</tspan></text>
      <text class="cls-25" transform="translate(20.06 126.11)"><tspan x="0" y="0">1.5</tspan></text>
      <text class="cls-25" transform="translate(20.06 120.43)"><tspan x="0" y="0">2.0</tspan></text>
      <text class="cls-25" transform="translate(20.06 137.55)"><tspan x="0" y="0">0.5</tspan></text>
    </g>
    <g>
      <text class="cls-25" transform="translate(151.23 131.62)"><tspan x="0" y="0">1.0</tspan></text>
      <text class="cls-31" transform="translate(149.22 129.84) rotate(-90)"><tspan x="0" y="0">OR</tspan></text>
      <text class="cls-25" transform="translate(151.23 115.02)"><tspan x="0" y="0">2.5</tspan></text>
      <text class="cls-25" transform="translate(155.1 142.97)"><tspan x="0" y="0">0</tspan></text>
      <text class="cls-25" transform="translate(151.23 126.11)"><tspan x="0" y="0">1.5</tspan></text>
      <text class="cls-25" transform="translate(151.23 120.43)"><tspan x="0" y="0">2.0</tspan></text>
      <text class="cls-25" transform="translate(151.23 137.55)"><tspan x="0" y="0">0.5</tspan></text>
    </g>
    <text class="cls-28" transform="translate(183.77 112.03)"><tspan x="0" y="0">3 additional languages</tspan></text>
    <text class="cls-28" transform="translate(47.65 112.03)"><tspan x="0" y="0">2 additional languages</tspan></text>
  </g>
  <g>
    <g>
      <line class="cls-6" x1="118.42" y1="37.65" x2="117.42" y2="37.65"/>
      <line class="cls-8" x1="116.42" y1="37.65" x2="29.72" y2="37.65"/>
      <line class="cls-6" x1="29.21" y1="37.65" x2="28.21" y2="37.65"/>
    </g>
    <g>
      <line class="cls-6" x1="250.02" y1="37.6" x2="249.02" y2="37.6"/>
      <line class="cls-8" x1="248.02" y1="37.6" x2="161.32" y2="37.6"/>
      <line class="cls-6" x1="160.82" y1="37.6" x2="159.82" y2="37.6"/>
    </g>
    <line class="cls-4" x1="32.31" y1="48.64" x2="32.31" y2="49.49"/>
    <line class="cls-4" x1="38.17" y1="48.64" x2="38.17" y2="49.49"/>
    <line class="cls-4" x1="44.03" y1="48.64" x2="44.03" y2="49.49"/>
    <line class="cls-4" x1="49.89" y1="48.64" x2="49.89" y2="49.49"/>
    <line class="cls-4" x1="55.74" y1="48.64" x2="55.74" y2="49.49"/>
    <line class="cls-4" x1="61.6" y1="48.64" x2="61.6" y2="49.49"/>
    <line class="cls-4" x1="67.46" y1="48.64" x2="67.46" y2="49.49"/>
    <line class="cls-4" x1="73.32" y1="48.64" x2="73.32" y2="49.49"/>
    <line class="cls-4" x1="79.17" y1="48.64" x2="79.17" y2="49.49"/>
    <line class="cls-4" x1="85.03" y1="48.64" x2="85.03" y2="49.49"/>
    <line class="cls-4" x1="90.89" y1="48.64" x2="90.89" y2="49.49"/>
    <line class="cls-4" x1="96.75" y1="48.64" x2="96.75" y2="49.49"/>
    <line class="cls-4" x1="102.6" y1="48.64" x2="102.6" y2="49.49"/>
    <line class="cls-4" x1="108.46" y1="48.64" x2="108.46" y2="49.49"/>
    <line class="cls-4" x1="114.32" y1="48.64" x2="114.32" y2="49.49"/>
    <line class="cls-4" x1="28.21" y1="48.64" x2="27.24" y2="48.64"/>
    <line class="cls-4" x1="28.21" y1="43.15" x2="27.24" y2="43.15"/>
    <line class="cls-4" x1="28.21" y1="37.65" x2="27.24" y2="37.65"/>
    <line class="cls-4" x1="28.21" y1="32.15" x2="27.24" y2="32.15"/>
    <line class="cls-4" x1="28.21" y1="26.65" x2="27.24" y2="26.65"/>
    <line class="cls-4" x1="28.21" y1="21.15" x2="27.24" y2="21.15"/>
    <polyline class="cls-7" points="32.31 25.3 38.17 25.45 44.03 25.05 49.89 24.82 55.74 24.03 61.6 24.18 67.46 25.17 73.32 24.89 79.17 24.44 85.03 27.03 90.89 26.22 96.75 24.96 102.6 25.64 108.46 28.1 114.32 26.28"/>
    <g class="cls-37">
      <path class="cls-21" d="m32.31,26.02c.22,0,.43-.08.59-.21.16-.14.24-.32.24-.51s-.09-.38-.24-.51c-.16-.14-.37-.21-.59-.21s-.43.08-.59.21c-.16.14-.24.32-.24.51s.09.38.24.51c.16.14.37.21.59.21Z"/>
      <path class="cls-9" d="m32.31,26.02c.22,0,.43-.08.59-.21.16-.14.24-.32.24-.51s-.09-.38-.24-.51c-.16-.14-.37-.21-.59-.21s-.43.08-.59.21c-.16.14-.24.32-.24.51s.09.38.24.51c.16.14.37.21.59.21Z"/>
    </g>
    <g class="cls-20">
      <path class="cls-21" d="m38.17,26.17c.22,0,.43-.08.59-.21.16-.14.24-.32.24-.51s-.09-.38-.24-.51c-.16-.14-.37-.21-.59-.21s-.43.08-.59.21c-.16.14-.24.32-.24.51s.09.38.24.51c.16.14.37.21.59.21Z"/>
      <path class="cls-9" d="m38.17,26.17c.22,0,.43-.08.59-.21.16-.14.24-.32.24-.51s-.09-.38-.24-.51c-.16-.14-.37-.21-.59-.21s-.43.08-.59.21c-.16.14-.24.32-.24.51s.09.38.24.51c.16.14.37.21.59.21Z"/>
    </g>
    <g class="cls-65">
      <path class="cls-21" d="m44.03,25.78c.22,0,.43-.08.59-.21.16-.14.24-.32.24-.51s-.09-.38-.24-.51c-.16-.14-.37-.21-.59-.21s-.43.08-.59.21c-.16.14-.24.32-.24.51s.09.38.24.51c.16.14.37.21.59.21Z"/>
      <path class="cls-9" d="m44.03,25.78c.22,0,.43-.08.59-.21.16-.14.24-.32.24-.51s-.09-.38-.24-.51c-.16-.14-.37-.21-.59-.21s-.43.08-.59.21c-.16.14-.24.32-.24.51s.09.38.24.51c.16.14.37.21.59.21Z"/>
    </g>
    <g class="cls-92">
      <path class="cls-21" d="m49.89,25.54c.22,0,.43-.08.59-.21.16-.14.24-.32.24-.51s-.09-.38-.24-.51c-.16-.14-.37-.21-.59-.21s-.43.08-.59.21c-.16.14-.24.32-.24.51s.09.38.24.51c.16.14.37.21.59.21Z"/>
      <path class="cls-9" d="m49.89,25.54c.22,0,.43-.08.59-.21.16-.14.24-.32.24-.51s-.09-.38-.24-.51c-.16-.14-.37-.21-.59-.21s-.43.08-.59.21c-.16.14-.24.32-.24.51s.09.38.24.51c.16.14.37.21.59.21Z"/>
    </g>
    <g class="cls-64">
      <path class="cls-21" d="m55.74,24.75c.22,0,.43-.08.59-.21s.24-.32.24-.51-.09-.38-.24-.51-.37-.21-.59-.21-.43.08-.59.21-.24.32-.24.51.09.38.24.51.37.21.59.21Z"/>
      <path class="cls-9" d="m55.74,24.75c.22,0,.43-.08.59-.21s.24-.32.24-.51-.09-.38-.24-.51-.37-.21-.59-.21-.43.08-.59.21-.24.32-.24.51.09.38.24.51.37.21.59.21Z"/>
    </g>
    <g class="cls-94">
      <path class="cls-21" d="m61.6,24.9c.22,0,.43-.08.59-.21s.24-.32.24-.51-.09-.38-.24-.51-.37-.21-.59-.21-.43.08-.59.21-.24.32-.24.51.09.38.24.51.37.21.59.21Z"/>
      <path class="cls-9" d="m61.6,24.9c.22,0,.43-.08.59-.21s.24-.32.24-.51-.09-.38-.24-.51-.37-.21-.59-.21-.43.08-.59.21-.24.32-.24.51.09.38.24.51.37.21.59.21Z"/>
    </g>
    <g class="cls-62">
      <path class="cls-21" d="m67.46,25.89c.22,0,.43-.08.59-.21s.24-.32.24-.51-.09-.38-.24-.51-.37-.21-.59-.21-.43.08-.59.21-.24.32-.24.51.09.38.24.51.37.21.59.21Z"/>
      <path class="cls-9" d="m67.46,25.89c.22,0,.43-.08.59-.21s.24-.32.24-.51-.09-.38-.24-.51-.37-.21-.59-.21-.43.08-.59.21-.24.32-.24.51.09.38.24.51.37.21.59.21Z"/>
    </g>
    <g class="cls-91">
      <path class="cls-21" d="m73.32,25.61c.22,0,.43-.08.59-.21s.24-.32.24-.51-.09-.38-.24-.51-.37-.21-.59-.21-.43.08-.59.21-.24.32-.24.51.09.38.24.51.37.21.59.21Z"/>
      <path class="cls-9" d="m73.32,25.61c.22,0,.43-.08.59-.21s.24-.32.24-.51-.09-.38-.24-.51-.37-.21-.59-.21-.43.08-.59.21-.24.32-.24.51.09.38.24.51.37.21.59.21Z"/>
    </g>
    <g class="cls-70">
      <path class="cls-21" d="m79.17,25.16c.22,0,.43-.08.59-.21s.24-.32.24-.51-.09-.38-.24-.51-.37-.21-.59-.21-.43.08-.59.21-.24.32-.24.51.09.38.24.51.37.21.59.21Z"/>
      <path class="cls-9" d="m79.17,25.16c.22,0,.43-.08.59-.21s.24-.32.24-.51-.09-.38-.24-.51-.37-.21-.59-.21-.43.08-.59.21-.24.32-.24.51.09.38.24.51.37.21.59.21Z"/>
    </g>
    <g class="cls-76">
      <path class="cls-21" d="m85.03,27.75c.22,0,.43-.08.59-.21s.24-.32.24-.51-.09-.38-.24-.51-.37-.21-.59-.21-.43.08-.59.21-.24.32-.24.51.09.38.24.51.37.21.59.21Z"/>
      <path class="cls-9" d="m85.03,27.75c.22,0,.43-.08.59-.21s.24-.32.24-.51-.09-.38-.24-.51-.37-.21-.59-.21-.43.08-.59.21-.24.32-.24.51.09.38.24.51.37.21.59.21Z"/>
    </g>
    <g class="cls-90">
      <path class="cls-21" d="m90.89,26.94c.22,0,.43-.08.59-.21.16-.14.24-.32.24-.51s-.09-.38-.24-.51c-.16-.14-.37-.21-.59-.21s-.43.08-.59.21c-.16.14-.24.32-.24.51s.09.38.24.51c.16.14.37.21.59.21Z"/>
      <path class="cls-9" d="m90.89,26.94c.22,0,.43-.08.59-.21.16-.14.24-.32.24-.51s-.09-.38-.24-.51c-.16-.14-.37-.21-.59-.21s-.43.08-.59.21c-.16.14-.24.32-.24.51s.09.38.24.51c.16.14.37.21.59.21Z"/>
    </g>
    <g class="cls-48">
      <path class="cls-21" d="m96.75,25.68c.22,0,.43-.08.59-.21.16-.14.24-.32.24-.51s-.09-.38-.24-.51c-.16-.14-.37-.21-.59-.21s-.43.08-.59.21c-.16.14-.24.32-.24.51s.09.38.24.51c.16.14.37.21.59.21Z"/>
      <path class="cls-9" d="m96.75,25.68c.22,0,.43-.08.59-.21.16-.14.24-.32.24-.51s-.09-.38-.24-.51c-.16-.14-.37-.21-.59-.21s-.43.08-.59.21c-.16.14-.24.32-.24.51s.09.38.24.51c.16.14.37.21.59.21Z"/>
    </g>
    <g class="cls-83">
      <path class="cls-21" d="m102.6,26.36c.22,0,.43-.08.59-.21.16-.14.24-.32.24-.51s-.09-.38-.24-.51c-.16-.14-.37-.21-.59-.21s-.43.08-.59.21c-.16.14-.24.32-.24.51s.09.38.24.51c.16.14.37.21.59.21Z"/>
      <path class="cls-9" d="m102.6,26.36c.22,0,.43-.08.59-.21.16-.14.24-.32.24-.51s-.09-.38-.24-.51c-.16-.14-.37-.21-.59-.21s-.43.08-.59.21c-.16.14-.24.32-.24.51s.09.38.24.51c.16.14.37.21.59.21Z"/>
    </g>
    <g class="cls-17">
      <path class="cls-21" d="m108.46,28.82c.22,0,.43-.08.59-.21.16-.14.24-.32.24-.51s-.09-.38-.24-.51c-.16-.14-.37-.21-.59-.21s-.43.08-.59.21c-.16.14-.24.32-.24.51s.09.38.24.51c.16.14.37.21.59.21Z"/>
      <path class="cls-9" d="m108.46,28.82c.22,0,.43-.08.59-.21.16-.14.24-.32.24-.51s-.09-.38-.24-.51c-.16-.14-.37-.21-.59-.21s-.43.08-.59.21c-.16.14-.24.32-.24.51s.09.38.24.51c.16.14.37.21.59.21Z"/>
    </g>
    <g class="cls-55">
      <path class="cls-21" d="m114.32,27c.22,0,.43-.08.59-.21.16-.14.24-.32.24-.51s-.09-.38-.24-.51c-.16-.14-.37-.21-.59-.21s-.43.08-.59.21c-.16.14-.24.32-.24.51s.09.38.24.51c.16.14.37.21.59.21Z"/>
      <path class="cls-9" d="m114.32,27c.22,0,.43-.08.59-.21.16-.14.24-.32.24-.51s-.09-.38-.24-.51c-.16-.14-.37-.21-.59-.21s-.43.08-.59.21c-.16.14-.24.32-.24.51s.09.38.24.51c.16.14.37.21.59.21Z"/>
    </g>
    <rect class="cls-11" x="28.21" y="21.15" width="90.2" height="27.49"/>
    <rect class="cls-11" x="28.21" y="21.15" width="90.2" height="27.49"/>
    <line class="cls-10" x1="28.21" y1="48.64" x2="28.21" y2="21.15"/>
    <line class="cls-10" x1="118.42" y1="48.64" x2="118.42" y2="21.15"/>
    <line class="cls-10" x1="28.21" y1="48.64" x2="118.42" y2="48.64"/>
    <line class="cls-10" x1="28.21" y1="21.15" x2="118.42" y2="21.15"/>
    <line class="cls-4" x1="163.92" y1="48.6" x2="163.92" y2="49.44"/>
    <line class="cls-4" x1="169.77" y1="48.6" x2="169.77" y2="49.44"/>
    <line class="cls-4" x1="175.63" y1="48.6" x2="175.63" y2="49.44"/>
    <line class="cls-4" x1="181.49" y1="48.6" x2="181.49" y2="49.44"/>
    <line class="cls-4" x1="187.35" y1="48.6" x2="187.35" y2="49.44"/>
    <line class="cls-4" x1="193.2" y1="48.6" x2="193.2" y2="49.44"/>
    <line class="cls-4" x1="199.06" y1="48.6" x2="199.06" y2="49.44"/>
    <line class="cls-4" x1="204.92" y1="48.6" x2="204.92" y2="49.44"/>
    <line class="cls-4" x1="210.78" y1="48.6" x2="210.78" y2="49.44"/>
    <line class="cls-4" x1="216.63" y1="48.6" x2="216.63" y2="49.44"/>
    <line class="cls-4" x1="222.49" y1="48.6" x2="222.49" y2="49.44"/>
    <line class="cls-4" x1="228.35" y1="48.6" x2="228.35" y2="49.44"/>
    <line class="cls-4" x1="234.21" y1="48.6" x2="234.21" y2="49.44"/>
    <line class="cls-4" x1="240.06" y1="48.6" x2="240.06" y2="49.44"/>
    <line class="cls-4" x1="245.92" y1="48.6" x2="245.92" y2="49.44"/>
    <line class="cls-4" x1="159.82" y1="48.6" x2="158.85" y2="48.6"/>
    <line class="cls-4" x1="159.82" y1="43.1" x2="158.85" y2="43.1"/>
    <line class="cls-4" x1="159.82" y1="37.6" x2="158.85" y2="37.6"/>
    <line class="cls-4" x1="159.82" y1="32.1" x2="158.85" y2="32.1"/>
    <line class="cls-4" x1="159.82" y1="26.6" x2="158.85" y2="26.6"/>
    <line class="cls-4" x1="159.82" y1="21.1" x2="158.85" y2="21.1"/>
    <polyline class="cls-7" points="163.92 40.26 169.77 40.3 175.63 40.24 181.49 40.14 187.35 40.08 193.2 39.58 199.06 39.11 204.92 39.81 210.78 40.42 216.63 40.97 222.49 41.03 228.35 40.63 234.21 41.8 240.06 43.53 245.92 45.11"/>
    <g class="cls-66">
      <path class="cls-21" d="m163.92,40.98c.22,0,.43-.08.59-.21.16-.14.24-.32.24-.51s-.09-.38-.24-.51c-.16-.14-.37-.21-.59-.21s-.43.08-.59.21c-.16.14-.24.32-.24.51s.09.38.24.51c.16.14.37.21.59.21Z"/>
      <path class="cls-9" d="m163.92,40.98c.22,0,.43-.08.59-.21.16-.14.24-.32.24-.51s-.09-.38-.24-.51c-.16-.14-.37-.21-.59-.21s-.43.08-.59.21c-.16.14-.24.32-.24.51s.09.38.24.51c.16.14.37.21.59.21Z"/>
    </g>
    <g class="cls-3">
      <path class="cls-21" d="m169.77,41.02c.22,0,.43-.08.59-.21.16-.14.24-.32.24-.51s-.09-.38-.24-.51c-.16-.14-.37-.21-.59-.21s-.43.08-.59.21c-.16.14-.24.32-.24.51s.09.38.24.51c.16.14.37.21.59.21Z"/>
      <path class="cls-9" d="m169.77,41.02c.22,0,.43-.08.59-.21.16-.14.24-.32.24-.51s-.09-.38-.24-.51c-.16-.14-.37-.21-.59-.21s-.43.08-.59.21c-.16.14-.24.32-.24.51s.09.38.24.51c.16.14.37.21.59.21Z"/>
    </g>
    <g class="cls-13">
      <path class="cls-21" d="m175.63,40.96c.22,0,.43-.08.59-.21.16-.14.24-.32.24-.51s-.09-.38-.24-.51c-.16-.14-.37-.21-.59-.21s-.43.08-.59.21c-.16.14-.24.32-.24.51s.09.38.24.51c.16.14.37.21.59.21Z"/>
      <path class="cls-9" d="m175.63,40.96c.22,0,.43-.08.59-.21.16-.14.24-.32.24-.51s-.09-.38-.24-.51c-.16-.14-.37-.21-.59-.21s-.43.08-.59.21c-.16.14-.24.32-.24.51s.09.38.24.51c.16.14.37.21.59.21Z"/>
    </g>
    <g class="cls-19">
      <path class="cls-21" d="m181.49,40.86c.22,0,.43-.08.59-.21.16-.14.24-.32.24-.51s-.09-.38-.24-.51c-.16-.14-.37-.21-.59-.21s-.43.08-.59.21c-.16.14-.24.32-.24.51s.09.38.24.51c.16.14.37.21.59.21Z"/>
      <path class="cls-9" d="m181.49,40.86c.22,0,.43-.08.59-.21.16-.14.24-.32.24-.51s-.09-.38-.24-.51c-.16-.14-.37-.21-.59-.21s-.43.08-.59.21c-.16.14-.24.32-.24.51s.09.38.24.51c.16.14.37.21.59.21Z"/>
    </g>
    <g class="cls-86">
      <path class="cls-21" d="m187.35,40.8c.22,0,.43-.08.59-.21.16-.14.24-.32.24-.51s-.09-.38-.24-.51c-.16-.14-.37-.21-.59-.21s-.43.08-.59.21c-.16.14-.24.32-.24.51s.09.38.24.51c.16.14.37.21.59.21Z"/>
      <path class="cls-9" d="m187.35,40.8c.22,0,.43-.08.59-.21.16-.14.24-.32.24-.51s-.09-.38-.24-.51c-.16-.14-.37-.21-.59-.21s-.43.08-.59.21c-.16.14-.24.32-.24.51s.09.38.24.51c.16.14.37.21.59.21Z"/>
    </g>
    <g class="cls-99">
      <path class="cls-21" d="m193.2,40.3c.22,0,.43-.08.59-.21.16-.14.24-.32.24-.51s-.09-.38-.24-.51c-.16-.14-.37-.21-.59-.21s-.43.08-.59.21c-.16.14-.24.32-.24.51s.09.38.24.51c.16.14.37.21.59.21Z"/>
      <path class="cls-9" d="m193.2,40.3c.22,0,.43-.08.59-.21.16-.14.24-.32.24-.51s-.09-.38-.24-.51c-.16-.14-.37-.21-.59-.21s-.43.08-.59.21c-.16.14-.24.32-.24.51s.09.38.24.51c.16.14.37.21.59.21Z"/>
    </g>
    <g class="cls-93">
      <path class="cls-21" d="m199.06,39.83c.22,0,.43-.08.59-.21.16-.14.24-.32.24-.51s-.09-.38-.24-.51c-.16-.14-.37-.21-.59-.21s-.43.08-.59.21c-.16.14-.24.32-.24.51s.09.38.24.51c.16.14.37.21.59.21Z"/>
      <path class="cls-9" d="m199.06,39.83c.22,0,.43-.08.59-.21.16-.14.24-.32.24-.51s-.09-.38-.24-.51c-.16-.14-.37-.21-.59-.21s-.43.08-.59.21c-.16.14-.24.32-.24.51s.09.38.24.51c.16.14.37.21.59.21Z"/>
    </g>
    <g class="cls-97">
      <path class="cls-21" d="m204.92,40.53c.22,0,.43-.08.59-.21.16-.14.24-.32.24-.51s-.09-.38-.24-.51c-.16-.14-.37-.21-.59-.21s-.43.08-.59.21c-.16.14-.24.32-.24.51s.09.38.24.51c.16.14.37.21.59.21Z"/>
      <path class="cls-9" d="m204.92,40.53c.22,0,.43-.08.59-.21.16-.14.24-.32.24-.51s-.09-.38-.24-.51c-.16-.14-.37-.21-.59-.21s-.43.08-.59.21c-.16.14-.24.32-.24.51s.09.38.24.51c.16.14.37.21.59.21Z"/>
    </g>
    <g class="cls-77">
      <path class="cls-21" d="m210.78,41.14c.22,0,.43-.08.59-.21.16-.14.24-.32.24-.51s-.09-.38-.24-.51c-.16-.14-.37-.21-.59-.21s-.43.08-.59.21c-.16.14-.24.32-.24.51s.09.38.24.51c.16.14.37.21.59.21Z"/>
      <path class="cls-9" d="m210.78,41.14c.22,0,.43-.08.59-.21.16-.14.24-.32.24-.51s-.09-.38-.24-.51c-.16-.14-.37-.21-.59-.21s-.43.08-.59.21c-.16.14-.24.32-.24.51s.09.38.24.51c.16.14.37.21.59.21Z"/>
    </g>
    <g class="cls-74">
      <path class="cls-21" d="m216.63,41.69c.22,0,.43-.08.59-.21.16-.14.24-.32.24-.51s-.09-.38-.24-.51c-.16-.14-.37-.21-.59-.21s-.43.08-.59.21c-.16.14-.24.32-.24.51s.09.38.24.51c.16.14.37.21.59.21Z"/>
      <path class="cls-9" d="m216.63,41.69c.22,0,.43-.08.59-.21.16-.14.24-.32.24-.51s-.09-.38-.24-.51c-.16-.14-.37-.21-.59-.21s-.43.08-.59.21c-.16.14-.24.32-.24.51s.09.38.24.51c.16.14.37.21.59.21Z"/>
    </g>
    <g class="cls-96">
      <path class="cls-21" d="m222.49,41.75c.22,0,.43-.08.59-.21.16-.14.24-.32.24-.51s-.09-.38-.24-.51c-.16-.14-.37-.21-.59-.21s-.43.08-.59.21c-.16.14-.24.32-.24.51s.09.38.24.51c.16.14.37.21.59.21Z"/>
      <path class="cls-9" d="m222.49,41.75c.22,0,.43-.08.59-.21.16-.14.24-.32.24-.51s-.09-.38-.24-.51c-.16-.14-.37-.21-.59-.21s-.43.08-.59.21c-.16.14-.24.32-.24.51s.09.38.24.51c.16.14.37.21.59.21Z"/>
    </g>
    <g class="cls-2">
      <path class="cls-21" d="m228.35,41.35c.22,0,.43-.08.59-.21.16-.14.24-.32.24-.51s-.09-.38-.24-.51c-.16-.14-.37-.21-.59-.21s-.43.08-.59.21c-.16.14-.24.32-.24.51s.09.38.24.51c.16.14.37.21.59.21Z"/>
      <path class="cls-9" d="m228.35,41.35c.22,0,.43-.08.59-.21.16-.14.24-.32.24-.51s-.09-.38-.24-.51c-.16-.14-.37-.21-.59-.21s-.43.08-.59.21c-.16.14-.24.32-.24.51s.09.38.24.51c.16.14.37.21.59.21Z"/>
    </g>
    <g class="cls-1">
      <path class="cls-21" d="m234.21,42.52c.22,0,.43-.08.59-.21.16-.14.24-.32.24-.51s-.09-.38-.24-.51c-.16-.14-.37-.21-.59-.21s-.43.08-.59.21c-.16.14-.24.32-.24.51s.09.38.24.51c.16.14.37.21.59.21Z"/>
      <path class="cls-9" d="m234.21,42.52c.22,0,.43-.08.59-.21.16-.14.24-.32.24-.51s-.09-.38-.24-.51c-.16-.14-.37-.21-.59-.21s-.43.08-.59.21c-.16.14-.24.32-.24.51s.09.38.24.51c.16.14.37.21.59.21Z"/>
    </g>
    <g class="cls-89">
      <path class="cls-21" d="m240.06,44.25c.22,0,.43-.08.59-.21.16-.14.24-.32.24-.51s-.09-.38-.24-.51c-.16-.14-.37-.21-.59-.21s-.43.08-.59.21c-.16.14-.24.32-.24.51s.09.38.24.51c.16.14.37.21.59.21Z"/>
      <path class="cls-9" d="m240.06,44.25c.22,0,.43-.08.59-.21.16-.14.24-.32.24-.51s-.09-.38-.24-.51c-.16-.14-.37-.21-.59-.21s-.43.08-.59.21c-.16.14-.24.32-.24.51s.09.38.24.51c.16.14.37.21.59.21Z"/>
    </g>
    <g class="cls-43">
      <path class="cls-21" d="m245.92,45.83c.22,0,.43-.08.59-.21.16-.14.24-.32.24-.51s-.09-.38-.24-.51c-.16-.14-.37-.21-.59-.21s-.43.08-.59.21c-.16.14-.24.32-.24.51s.09.38.24.51c.16.14.37.21.59.21Z"/>
      <path class="cls-9" d="m245.92,45.83c.22,0,.43-.08.59-.21.16-.14.24-.32.24-.51s-.09-.38-.24-.51c-.16-.14-.37-.21-.59-.21s-.43.08-.59.21c-.16.14-.24.32-.24.51s.09.38.24.51c.16.14.37.21.59.21Z"/>
    </g>
    <rect class="cls-11" x="159.82" y="21.1" width="90.2" height="27.49"/>
    <rect class="cls-11" x="159.82" y="21.1" width="90.2" height="27.49"/>
    <line class="cls-10" x1="159.82" y1="48.6" x2="159.82" y2="21.1"/>
    <line class="cls-10" x1="250.02" y1="48.6" x2="250.02" y2="21.1"/>
    <line class="cls-10" x1="159.82" y1="48.6" x2="250.02" y2="48.6"/>
    <line class="cls-10" x1="159.82" y1="21.1" x2="250.02" y2="21.1"/>
    <text class="cls-31" transform="translate(33.54 69.59) rotate(-90)"><tspan x="0" y="0">Baseline</tspan></text>
    <text class="cls-31" transform="translate(39.41 88.91) rotate(-90)"><tspan x="0" y="0">Local Democracy</tspan></text>
    <text class="cls-32" transform="translate(45.29 93.16) rotate(-90)"><tspan class="cls-84" x="0" y="0"> </tspan><tspan class="cls-26" x="1.38" y="0">Languages </tspan><tspan class="cls-84" x="23.3" y="0">Distance</tspan></text>
    <text class="cls-31" transform="translate(51.17 90.85) rotate(-90)"><tspan x="0" y="0">Structural Equality</tspan></text>
    <text class="cls-31" transform="translate(57.04 99.98) rotate(-90)"><tspan x="0" y="0">Institutional languages</tspan></text>
    <text class="cls-31" transform="translate(193.76 99.98) rotate(-90)"><tspan x="0" y="0">Institutional languages</tspan></text>
    <text class="cls-31" transform="translate(62.92 94.99) rotate(-90)"><tspan x="0" y="0">Free political parties</tspan></text>
    <text class="cls-31" transform="translate(74.98 93.62) rotate(-90)"><tspan x="0" y="0">Bachelor Education</tspan></text>
    <text class="cls-31" transform="translate(68.59 86.16) rotate(-90)"><tspan x="0" y="0">Gender Equality</tspan></text>
    <text class="cls-31" transform="translate(80.85 90.58) rotate(-90)"><tspan x="0" y="0">Credible Elections</tspan></text>
    <text class="cls-31" transform="translate(86.73 92.51) rotate(-90)"><tspan x="0" y="0">Doctoral Education</tspan></text>
    <text class="cls-31" transform="translate(92.61 72.35) rotate(-90)"><tspan x="0" y="0">Air quality</tspan></text>
    <text class="cls-31" transform="translate(98.48 84.41) rotate(-90)"><tspan x="0" y="0">GD</tspan><tspan class="cls-71" x="7.45" y="0">P</tspan><tspan x="10.68" y="0" xml:space="preserve"> per capita</tspan></text>
    <text class="cls-31" transform="translate(104.36 88.93) rotate(-90)"><tspan x="0" y="0">Stable languages</tspan></text>
    <text class="cls-31" transform="translate(110.24 70.97) rotate(-90)"><tspan x="0" y="0">Migration</tspan></text>
    <text class="cls-31" transform="translate(116.11 89.11) rotate(-90)"><tspan x="0" y="0">Inclusive su</tspan><tspan class="cls-71" x="25.96" y="0">f</tspan><tspan x="27.25" y="0">frage</tspan></text>
    <text class="cls-31" transform="translate(164.38 69.59) rotate(-90)"><tspan x="0" y="0">Baseline</tspan></text>
    <text class="cls-31" transform="translate(229.02 88.91) rotate(-90)"><tspan x="0" y="0">Local Democracy</tspan></text>
    <text class="cls-32" transform="translate(170.25 93.16) rotate(-90)"><tspan class="cls-84" x="0" y="0"> </tspan><tspan class="cls-26" x="1.38" y="0">Languages </tspan><tspan class="cls-84" x="23.3" y="0">Distance</tspan></text>
    <text class="cls-31" transform="translate(223.14 90.85) rotate(-90)"><tspan x="0" y="0">Structural Equality</tspan></text>
    <text class="cls-31" transform="translate(199.64 88.93) rotate(-90)"><tspan x="0" y="0">Stable languages</tspan></text>
    <text class="cls-31" transform="translate(182.01 94.99) rotate(-90)"><tspan x="0" y="0">Free political parties</tspan></text>
    <text class="cls-31" transform="translate(234.9 93.62) rotate(-90)"><tspan x="0" y="0">Bachelor Education</tspan></text>
    <text class="cls-31" transform="translate(240.78 86.16) rotate(-90)"><tspan x="0" y="0">Gender Equality</tspan></text>
    <text class="cls-31" transform="translate(176.13 90.58) rotate(-90)"><tspan x="0" y="0">Credible Elections</tspan></text>
    <text class="cls-31" transform="translate(217.27 92.51) rotate(-90)"><tspan x="0" y="0">Doctoral Education</tspan></text>
    <text class="cls-31" transform="translate(205.51 72.35) rotate(-90)"><tspan x="0" y="0">Air quality</tspan></text>
    <text class="cls-31" transform="translate(246.65 84.41) rotate(-90)"><tspan x="0" y="0">GD</tspan><tspan class="cls-71" x="7.45" y="0">P</tspan><tspan x="10.68" y="0" xml:space="preserve"> per capita</tspan></text>
    <text class="cls-31" transform="translate(211.39 70.97) rotate(-90)"><tspan x="0" y="0">Migration</tspan></text>
    <text class="cls-31" transform="translate(187.88 89.11) rotate(-90)"><tspan x="0" y="0">Inclusive su</tspan><tspan class="cls-71" x="25.96" y="0">f</tspan><tspan x="27.25" y="0">frage</tspan></text>
    <g>
      <text class="cls-25" transform="translate(20.08 39.11)"><tspan x="0" y="0">1.0</tspan></text>
      <text class="cls-31" transform="translate(18.06 37.33) rotate(-90)"><tspan x="0" y="0">OR</tspan></text>
      <text class="cls-25" transform="translate(20.08 22.51)"><tspan x="0" y="0">2.5</tspan></text>
      <text class="cls-25" transform="translate(23.94 50.46)"><tspan x="0" y="0">0</tspan></text>
      <text class="cls-25" transform="translate(20.08 33.6)"><tspan x="0" y="0">1.5</tspan></text>
      <text class="cls-25" transform="translate(20.08 27.92)"><tspan x="0" y="0">2.0</tspan></text>
      <text class="cls-25" transform="translate(20.08 45.04)"><tspan x="0" y="0">0.5</tspan></text>
    </g>
    <g>
      <text class="cls-25" transform="translate(151.25 39.11)"><tspan x="0" y="0">1.0</tspan></text>
      <text class="cls-31" transform="translate(149.24 37.33) rotate(-90)"><tspan x="0" y="0">OR</tspan></text>
      <text class="cls-25" transform="translate(151.25 22.51)"><tspan x="0" y="0">2.5</tspan></text>
      <text class="cls-25" transform="translate(155.12 50.46)"><tspan x="0" y="0">0</tspan></text>
      <text class="cls-25" transform="translate(151.25 33.6)"><tspan x="0" y="0">1.5</tspan></text>
      <text class="cls-25" transform="translate(151.25 27.92)"><tspan x="0" y="0">2.0</tspan></text>
      <text class="cls-25" transform="translate(151.25 45.04)"><tspan x="0" y="0">0.5</tspan></text>
    </g>
    <text class="cls-28" transform="translate(184.99 19.18)"><tspan x="0" y="0">1 additional language</tspan></text>
    <text class="cls-29" transform="translate(54.52 19.18) scale(1.01 1)"><tspan x="0" y="0">Monolingualism</tspan></text>
  </g>
  <text class="cls-27" transform="translate(13.58 301.05)"><tspan x="0" y="0">Covariate added at each step (models are cumulative: previously added covariates are retained)</tspan></text>
  <rect class="cls-5" x=".5" y=".5" width="262.03" height="305.17"/>
</svg>